<svg id="svg" version="1.1" xmlns="http://www.w3.org/2000/svg" xmlns:xlink="http://www.w3.org/1999/xlink" width="400" height="188.45569620253164" viewBox="0, 0, 400,188.45569620253164"><g id="svgg"><path id="path0" d="M370.750 71.009 C 363.689 71.714,359.111 77.633,357.592 88.021 C 357.450 88.996,357.333 90.023,357.333 90.305 L 357.333 90.818 357.823 90.537 C 358.511 90.142,358.556 90.290,358.177 91.686 C 357.813 93.024,357.335 95.792,357.334 96.567 C 357.333 97.013,357.398 96.963,358.194 95.900 C 360.099 93.355,363.364 90.783,364.319 91.076 C 365.001 91.285,370.707 91.665,373.171 91.666 C 377.427 91.667,380.226 91.200,381.697 90.243 L 382.311 89.843 382.481 90.380 C 383.258 92.827,384.062 97.368,384.333 100.833 C 384.437 102.162,384.574 103.737,384.636 104.333 L 384.750 105.417 385.917 102.376 C 386.558 100.703,387.130 99.334,387.188 99.334 C 387.351 99.333,388.000 100.937,388.000 101.343 C 388.000 102.347,389.207 99.975,389.743 97.918 C 390.046 96.752,390.381 95.778,390.516 95.667 C 390.572 95.621,390.661 95.396,390.716 95.167 C 390.770 94.938,390.937 94.300,391.088 93.750 C 391.369 92.725,391.591 91.754,392.078 89.417 C 393.051 84.743,392.371 79.714,390.491 77.692 C 389.871 77.026,388.196 76.007,387.711 76.002 C 387.598 76.001,386.998 75.688,386.378 75.306 C 384.877 74.383,381.552 72.806,380.000 72.280 C 377.368 71.390,376.539 71.198,374.833 71.087 C 374.054 71.036,373.117 70.968,372.750 70.935 C 372.383 70.902,371.483 70.935,370.750 71.009 M51.113 78.422 C 48.888 78.977,45.825 82.320,43.611 86.612 C 41.408 90.881,43.563 96.255,47.917 97.351 C 50.083 97.896,53.259 92.818,54.425 86.945 L 54.712 85.500 56.231 85.517 C 57.067 85.526,57.926 85.583,58.141 85.643 L 58.532 85.753 58.183 86.069 C 57.991 86.243,57.477 86.481,57.042 86.598 L 56.250 86.811 57.000 86.829 L 57.750 86.847 57.250 87.111 C 56.666 87.419,56.167 87.833,56.167 88.008 C 56.167 88.075,56.448 87.984,56.792 87.805 C 57.316 87.532,57.612 87.497,58.625 87.587 C 59.332 87.650,59.833 87.631,59.833 87.541 C 59.833 87.359,59.107 87.005,58.700 86.988 C 58.544 86.982,59.054 86.839,59.833 86.672 C 60.612 86.504,61.869 86.145,62.625 85.874 C 63.828 85.443,64.000 85.416,64.000 85.661 C 64.000 86.122,62.900 87.526,62.133 88.045 L 61.417 88.530 62.542 88.412 C 63.463 88.316,63.667 88.338,63.667 88.534 C 63.667 88.665,63.910 88.880,64.208 89.012 C 64.549 89.161,64.770 89.389,64.803 89.625 C 64.868 90.081,65.167 90.127,65.167 89.680 C 65.167 89.126,64.976 88.829,64.438 88.550 L 63.917 88.279 65.083 87.919 C 65.725 87.720,66.493 87.431,66.790 87.276 L 67.330 86.993 66.749 88.597 C 63.879 96.526,61.019 99.895,57.156 99.895 C 55.716 99.895,55.598 99.958,56.292 100.361 C 58.889 101.871,62.811 101.020,65.218 98.422 C 69.557 93.741,71.882 82.154,68.791 80.616 C 65.597 79.027,54.308 77.626,51.113 78.422 M56.845 89.272 C 56.205 90.087,56.530 91.167,57.416 91.167 C 58.274 91.167,58.834 89.687,58.195 89.109 C 57.753 88.709,57.240 88.770,56.845 89.272 M62.772 91.012 C 61.950 91.659,62.232 93.000,63.191 93.000 C 63.776 93.000,64.167 92.454,64.167 91.635 C 64.167 90.690,63.539 90.409,62.772 91.012 M361.083 94.179 L 360.250 94.281 361.143 94.307 C 363.187 94.367,365.530 95.318,367.118 96.732 C 367.796 97.335,368.195 97.574,368.458 97.534 C 368.999 97.452,368.930 97.280,368.044 96.501 C 366.054 94.748,363.474 93.888,361.083 94.179 M56.333 96.320 C 56.333 96.804,56.691 97.303,57.113 97.409 C 57.372 97.473,57.828 97.712,58.127 97.940 L 58.671 98.354 59.100 98.016 L 59.529 97.679 58.749 97.482 C 58.320 97.374,57.600 97.033,57.151 96.723 C 56.701 96.414,56.333 96.233,56.333 96.320 M362.083 97.140 C 363.086 97.753,363.116 97.893,362.515 99.135 C 361.760 100.696,361.756 101.283,362.495 101.788 C 363.629 102.562,363.975 102.341,364.718 100.369 C 365.479 98.347,365.517 98.446,363.627 97.500 C 362.231 96.801,361.096 96.537,362.083 97.140 M374.833 99.063 C 374.833 99.508,375.269 99.629,377.167 99.707 C 379.401 99.800,380.655 100.188,382.356 101.313 L 383.417 102.014 382.528 101.190 C 380.904 99.684,378.585 98.842,376.042 98.836 C 375.125 98.834,374.833 98.889,374.833 99.063 M377.301 101.928 L 377.996 102.522 377.476 103.520 C 376.470 105.453,376.696 106.363,378.242 106.614 C 378.904 106.722,378.904 106.722,379.685 104.667 L 380.286 103.083 379.852 102.779 C 379.224 102.339,377.135 101.333,376.850 101.333 C 376.716 101.333,376.919 101.601,377.301 101.928 M355.800 106.514 C 355.217 107.957,354.778 109.678,354.949 109.849 C 355.283 110.183,357.185 110.489,357.098 110.195 C 356.838 109.320,356.618 108.215,356.442 106.902 L 356.244 105.417 355.800 106.514 M384.500 106.828 C 384.500 108.892,379.677 115.189,376.833 116.838 C 376.146 117.237,375.563 117.576,375.538 117.591 C 375.512 117.607,375.616 118.184,375.767 118.873 C 376.040 120.115,376.049 120.128,376.704 120.325 L 377.366 120.523 379.244 119.099 C 380.277 118.315,381.812 117.054,382.655 116.295 L 384.188 114.917 384.244 112.083 C 384.275 110.525,384.384 108.695,384.486 108.017 C 384.589 107.339,384.634 106.745,384.586 106.697 C 384.539 106.650,384.500 106.709,384.500 106.828 M103.366 108.141 C 102.063 109.620,101.090 111.000,100.426 112.313 L 99.973 113.210 100.371 113.110 C 101.409 112.849,102.000 112.492,102.002 112.123 C 102.005 111.561,102.997 109.404,103.878 108.042 C 104.870 106.509,104.791 106.524,103.366 108.141 M110.714 108.038 C 108.797 110.888,108.165 113.700,109.065 115.369 C 109.376 115.945,109.765 116.829,109.929 117.333 L 110.228 118.250 110.449 117.500 C 111.024 115.545,111.592 110.234,111.469 107.954 L 111.417 106.992 110.714 108.038 M85.282 113.169 C 83.505 113.703,81.633 116.348,81.390 118.667 L 81.290 119.627 81.919 119.834 C 84.828 120.794,89.266 117.771,89.625 114.585 C 89.696 113.960,89.656 113.839,89.319 113.659 C 88.259 113.092,86.322 112.857,85.282 113.169 M102.000 114.538 C 102.000 114.663,102.298 115.047,102.663 115.393 C 103.048 115.758,103.395 116.279,103.489 116.636 C 103.578 116.974,103.709 117.475,103.779 117.750 C 103.900 118.224,103.910 118.211,103.965 117.505 C 104.043 116.499,103.725 115.450,103.191 114.950 C 102.643 114.438,102.000 114.215,102.000 114.538 M383.240 117.664 C 382.604 118.241,381.391 119.242,380.545 119.888 C 379.699 120.534,379.034 121.090,379.067 121.123 C 379.100 121.156,379.830 121.430,380.689 121.732 L 382.250 122.280 382.700 123.182 C 383.280 124.341,385.639 130.266,386.361 132.374 C 387.048 134.382,387.107 134.385,387.254 132.418 C 387.467 129.574,386.993 126.155,385.959 123.083 C 385.589 121.983,385.086 120.078,384.842 118.849 L 384.397 116.615 383.240 117.664 M101.125 117.164 C 100.275 117.833,100.477 119.167,101.428 119.167 C 102.371 119.167,103.030 117.714,102.362 117.109 C 101.961 116.747,101.637 116.761,101.125 117.164 M88.604 120.966 C 88.472 121.180,88.778 121.554,88.981 121.428 C 89.249 121.263,89.209 120.833,88.927 120.833 C 88.794 120.833,88.649 120.893,88.604 120.966 M357.519 121.597 C 357.325 121.843,357.167 122.201,357.167 122.392 C 357.167 122.707,360.576 131.493,361.095 132.516 C 361.282 132.883,361.269 133.133,361.008 134.182 C 359.171 141.569,359.050 147.479,360.674 150.506 C 363.006 154.854,366.012 162.396,367.077 166.567 C 367.215 167.108,367.348 167.567,367.372 167.588 C 367.501 167.696,369.315 167.438,369.243 167.321 C 369.196 167.245,369.304 167.105,369.482 167.009 C 370.343 166.549,365.800 154.142,363.131 149.667 C 362.405 148.449,362.167 147.199,362.167 144.611 C 362.167 141.624,362.443 139.597,363.427 135.373 L 363.864 133.495 364.640 132.965 C 365.067 132.673,365.836 132.093,366.349 131.675 C 367.022 131.128,371.791 127.478,372.808 126.732 C 372.971 126.612,372.589 125.256,372.316 124.982 C 371.817 124.484,371.774 124.508,367.489 127.654 C 365.251 129.298,363.404 130.626,363.385 130.607 C 363.366 130.588,362.387 128.475,361.210 125.911 L 359.069 121.250 358.470 121.199 C 357.986 121.158,357.804 121.234,357.519 121.597 M15.695 122.374 L 13.807 123.055 13.906 123.653 C 14.571 127.638,17.600 139.182,18.567 141.417 C 18.686 141.692,18.880 142.164,18.999 142.467 C 19.143 142.834,19.295 142.987,19.455 142.925 C 19.587 142.874,19.989 142.786,20.348 142.728 C 21.117 142.605,21.110 142.625,20.602 141.947 C 18.363 138.965,17.843 134.861,19.168 130.633 C 19.685 128.985,19.691 129.123,19.006 126.500 C 18.789 125.667,18.555 124.621,18.233 123.042 C 18.078 122.285,17.869 121.673,17.768 121.680 C 17.666 121.687,16.734 121.999,15.695 122.374 M89.000 122.750 C 89.000 122.903,89.081 123.001,89.179 122.968 C 89.278 122.935,89.358 122.837,89.358 122.750 C 89.358 122.663,89.278 122.565,89.179 122.532 C 89.081 122.499,89.000 122.597,89.000 122.750 M87.410 122.844 C 87.349 122.942,87.340 123.062,87.389 123.111 C 87.508 123.230,87.833 123.020,87.833 122.823 C 87.833 122.611,87.546 122.625,87.410 122.844 M317.583 131.640 C 316.508 132.135,316.422 132.451,316.666 134.988 L 316.875 137.167 318.187 137.167 L 319.500 137.167 319.485 136.708 C 319.324 131.674,319.057 130.962,317.583 131.640 M334.008 131.658 C 333.763 131.813,334.207 136.878,334.496 137.212 C 334.603 137.336,336.764 136.958,336.937 136.785 C 337.132 136.590,336.609 132.577,336.349 132.275 C 335.773 131.603,334.588 131.291,334.008 131.658 M115.798 137.149 C 115.771 137.204,115.529 137.363,115.258 137.502 C 113.470 138.417,113.817 142.152,115.852 143.894 C 117.813 145.573,123.342 144.887,124.371 142.837 L 124.659 142.264 123.871 141.822 C 119.713 139.491,118.391 138.722,117.213 137.947 C 116.461 137.452,115.824 137.093,115.798 137.149 M59.575 139.814 C 58.310 140.665,57.683 141.271,54.381 144.834 C 50.010 149.549,48.333 151.989,47.428 154.950 C 47.150 155.859,51.689 156.064,55.472 155.314 C 56.566 155.097,56.608 155.135,56.178 155.977 C 55.989 156.349,55.833 156.692,55.833 156.740 C 55.833 156.841,56.971 156.725,58.476 156.469 L 59.535 156.289 59.431 155.633 C 59.373 155.272,59.309 154.902,59.288 154.809 C 59.267 154.717,59.813 154.472,60.500 154.266 C 61.188 154.059,62.650 153.508,63.750 153.040 C 66.316 151.951,66.190 151.967,66.404 152.695 C 66.654 153.545,66.681 153.555,67.687 153.160 C 69.682 152.375,70.075 151.682,69.392 150.149 L 68.976 149.214 66.994 148.999 C 64.236 148.701,62.976 148.834,58.583 149.888 C 54.973 150.755,51.667 151.384,51.667 151.205 C 51.667 149.448,59.275 142.047,62.023 141.131 C 62.129 141.096,62.045 140.746,61.811 140.245 C 61.598 139.789,61.422 139.404,61.420 139.389 C 61.372 139.026,60.421 139.245,59.575 139.814 M327.050 143.180 C 324.432 144.009,324.401 144.612,326.840 147.201 C 328.851 149.335,328.796 149.246,328.392 149.700 C 326.967 151.303,323.471 150.698,320.083 148.263 C 318.669 147.247,318.455 147.916,319.794 149.167 C 321.734 150.979,325.857 152.857,325.776 151.891 C 325.755 151.641,325.985 151.525,326.995 151.275 L 328.240 150.966 329.110 151.393 C 329.919 151.790,330.044 151.807,330.893 151.628 C 331.684 151.463,331.895 151.477,332.470 151.737 L 333.135 152.036 334.157 151.492 C 335.181 150.946,336.167 150.017,336.167 149.598 C 336.167 149.175,335.734 148.968,335.483 149.271 C 334.462 150.501,332.206 150.826,331.069 149.907 C 330.194 149.200,330.172 149.305,331.714 146.907 C 333.255 144.511,333.383 144.252,333.245 143.819 C 332.952 142.895,329.178 142.505,327.050 143.180 M375.951 145.534 C 375.513 146.640,375.177 147.566,375.204 147.593 C 375.256 147.645,377.654 146.735,377.771 146.618 C 377.825 146.564,376.887 143.684,376.773 143.554 C 376.758 143.538,376.389 144.429,375.951 145.534 M102.375 147.948 C 102.535 147.990,102.798 147.990,102.958 147.948 C 103.119 147.906,102.987 147.872,102.667 147.872 C 102.346 147.872,102.215 147.906,102.375 147.948 M124.716 148.376 C 123.830 149.682,123.567 151.335,124.086 152.339 C 124.998 154.102,128.556 151.771,127.986 149.784 C 127.514 148.138,125.474 147.259,124.716 148.376 M137.989 153.070 C 135.378 158.972,139.693 165.553,145.599 164.674 C 147.362 164.412,147.326 164.537,146.245 162.430 C 144.496 159.018,142.768 156.678,139.633 153.475 C 138.310 152.123,138.398 152.145,137.989 153.070 M29.708 162.492 C 29.741 168.252,29.796 169.863,29.968 170.033 C 30.207 170.272,32.399 170.320,33.233 170.106 L 33.716 169.981 33.601 168.366 C 33.538 167.477,33.417 165.212,33.331 163.333 C 33.246 161.454,33.125 158.895,33.063 157.645 L 32.950 155.374 32.100 155.272 C 31.633 155.216,30.894 155.169,30.458 155.168 L 29.666 155.167 29.708 162.492 M348.614 166.549 C 348.560 166.943,348.467 167.393,348.407 167.549 C 348.308 167.805,348.464 167.833,349.995 167.833 L 351.692 167.833 351.304 167.354 C 351.005 166.985,349.087 165.833,348.769 165.833 C 348.738 165.833,348.668 166.155,348.614 166.549 M34.833 170.755 C 34.833 172.812,33.885 173.589,31.521 173.469 C 29.305 173.357,28.500 172.689,28.500 170.964 L 28.500 170.078 26.875 170.189 C 22.780 170.471,18.692 172.500,17.661 174.763 C 16.924 176.379,17.334 176.488,19.764 175.319 C 21.585 174.444,22.415 174.167,23.220 174.167 L 23.899 174.167 23.394 174.708 C 21.648 176.584,19.898 180.129,19.608 182.375 C 19.443 183.658,19.449 183.655,22.951 180.382 C 27.057 176.545,28.331 175.863,31.044 176.046 C 33.349 176.202,34.753 177.255,37.429 180.833 C 39.499 183.603,39.547 183.629,39.729 182.076 C 39.790 181.562,39.950 180.876,40.086 180.551 C 40.407 179.782,40.398 179.468,40.042 179.073 C 39.881 178.895,39.533 178.460,39.268 178.105 C 39.004 177.751,38.378 177.059,37.878 176.567 C 37.379 176.076,37.001 175.580,37.039 175.466 C 37.233 174.886,39.298 174.857,40.407 175.419 C 41.380 175.913,41.434 175.875,41.576 174.614 C 41.636 174.081,41.724 173.546,41.770 173.424 C 42.150 172.434,37.729 169.833,35.666 169.833 L 34.833 169.833 34.833 170.755 M155.909 172.732 C 155.450 175.177,157.561 177.333,160.412 177.333 C 162.738 177.333,160.528 174.236,157.075 172.656 C 156.621 172.448,156.198 172.251,156.133 172.218 C 156.069 172.185,155.968 172.416,155.909 172.732 M365.083 176.004 C 362.017 176.169,359.670 176.526,360.583 176.688 C 364.776 177.433,370.422 177.070,371.075 176.014 C 371.200 175.811,368.738 175.808,365.083 176.004 M45.435 178.536 C 45.095 179.321,45.098 179.386,45.489 179.740 C 45.892 180.105,46.150 179.182,45.869 178.384 L 45.704 177.917 45.435 178.536 " stroke="none" fill="#443f47" fill-rule="evenodd"></path><path id="path1" d="M59.750 88.176 C 59.383 88.252,58.401 88.318,57.567 88.324 C 55.832 88.335,55.716 88.406,55.274 89.737 C 55.124 90.188,55.020 90.568,55.042 90.583 C 55.065 90.597,55.330 90.707,55.632 90.828 C 56.286 91.088,56.667 91.582,56.667 92.170 C 56.667 93.117,55.803 93.277,55.005 92.480 C 54.719 92.194,54.461 91.987,54.432 92.021 C 53.644 92.944,52.758 97.070,53.179 97.857 C 54.996 101.252,60.287 100.241,63.208 95.940 C 64.252 94.402,66.849 88.794,66.622 88.567 C 66.420 88.365,65.179 88.943,65.261 89.201 C 65.375 89.562,65.205 90.167,64.989 90.167 C 64.903 90.167,64.833 90.069,64.833 89.949 C 64.833 89.267,64.466 89.156,63.360 89.502 C 62.104 89.896,60.333 89.955,60.333 89.604 C 60.333 89.477,60.446 89.105,60.583 88.776 C 60.952 87.893,60.989 87.920,59.750 88.176 M58.130 88.926 C 59.220 89.690,58.008 91.814,56.897 91.086 C 56.157 90.601,56.232 89.634,57.061 88.962 C 57.503 88.604,57.663 88.599,58.130 88.926 M381.333 90.536 C 379.023 91.731,372.663 92.112,366.526 91.423 L 363.968 91.136 362.920 91.653 C 361.571 92.317,359.806 93.957,358.335 95.914 L 357.171 97.463 357.059 99.168 C 356.948 100.858,356.945 100.869,356.644 100.478 C 355.975 99.607,356.327 107.171,357.073 109.683 C 357.350 110.617,357.384 110.600,355.942 110.255 C 354.755 109.972,355.096 110.572,353.614 106.167 C 350.742 97.631,351.314 94.773,355.668 95.902 C 356.774 96.189,357.212 96.029,357.135 95.365 C 356.981 94.036,353.131 93.911,351.744 95.190 C 349.811 96.971,350.002 99.759,352.576 107.342 L 353.796 110.933 353.356 111.471 L 352.917 112.008 351.250 111.676 C 346.806 110.791,342.464 109.981,342.422 110.029 C 342.396 110.059,342.235 110.528,342.063 111.071 L 341.750 112.058 339.000 112.694 C 310.770 119.227,304.780 120.649,304.649 120.852 C 302.684 123.908,297.175 142.411,296.753 147.371 C 296.710 147.870,296.373 149.653,296.004 151.334 C 295.171 155.130,295.167 154.964,296.072 154.341 C 297.020 153.689,296.875 153.600,297.753 155.375 C 298.172 156.223,298.792 157.292,299.129 157.750 C 301.044 160.352,302.596 163.531,302.920 165.517 L 303.230 167.417 304.873 169.853 L 306.517 172.290 308.277 172.592 C 310.317 172.941,312.573 172.788,313.157 172.259 C 313.433 172.009,313.691 171.987,315.126 172.089 L 316.778 172.206 317.139 171.747 C 317.647 171.101,317.597 170.600,316.976 170.114 L 316.453 169.705 317.685 169.510 C 319.799 169.175,319.865 169.156,319.762 168.887 C 319.709 168.751,319.667 168.539,319.667 168.416 C 319.667 167.999,318.844 167.211,318.296 167.101 L 317.752 166.992 318.626 166.587 C 319.620 166.127,319.679 165.933,319.157 164.852 C 318.708 163.922,318.090 163.666,316.297 163.667 C 315.029 163.668,314.677 163.583,311.966 162.626 L 309.015 161.585 308.736 160.553 C 308.121 158.281,309.455 157.874,311.481 159.716 C 312.796 160.910,313.957 161.496,315.014 161.498 C 316.092 161.501,316.098 161.541,314.691 159.135 L 313.417 156.957 311.083 155.732 C 309.671 154.991,308.547 154.506,308.234 154.504 C 307.493 154.498,305.877 153.906,305.205 153.394 L 304.629 152.954 305.748 152.477 C 306.363 152.215,307.007 152.000,307.179 152.000 C 307.469 152.000,307.484 151.890,307.389 150.452 C 307.307 149.197,307.340 148.805,307.563 148.373 C 308.434 146.687,308.682 143.299,308.418 136.667 C 308.208 131.405,309.183 127.767,311.518 125.103 C 311.849 124.726,312.312 124.042,312.546 123.583 C 314.116 120.508,317.404 119.568,326.098 119.712 C 332.154 119.812,334.107 120.181,336.654 121.708 C 337.151 122.006,337.920 122.448,338.363 122.689 C 343.060 125.249,345.106 130.409,344.504 138.174 C 344.115 143.201,344.787 148.285,346.264 151.482 C 346.577 152.159,346.833 152.741,346.833 152.773 C 346.833 153.348,343.057 152.569,341.918 151.759 C 340.904 151.038,340.938 150.979,341.331 152.781 C 341.725 154.588,342.167 157.455,342.167 158.207 C 342.166 158.623,342.008 158.904,341.488 159.408 C 338.901 161.918,337.425 167.444,339.222 167.895 C 339.423 167.945,339.715 168.203,339.872 168.469 C 340.309 169.209,343.090 171.795,344.978 173.218 C 347.287 174.956,349.426 175.935,353.167 176.963 L 354.250 177.261 358.000 176.724 C 363.784 175.896,364.183 175.857,367.893 175.747 C 371.681 175.635,371.947 175.707,370.487 176.454 C 368.796 177.318,365.437 177.415,360.417 176.745 L 359.583 176.634 359.640 177.662 C 359.769 179.987,361.083 179.815,346.833 179.334 C 335.262 178.943,335.980 178.953,336.417 179.196 C 338.578 180.399,340.036 182.108,339.665 183.003 C 339.073 184.434,337.342 184.754,331.500 184.513 C 328.979 184.409,324.254 184.215,321.000 184.082 C 317.746 183.950,314.296 183.808,313.333 183.767 C 311.332 183.682,310.102 183.361,308.931 182.617 L 308.113 182.097 302.348 182.055 C 299.177 182.031,295.924 181.951,295.118 181.876 C 293.816 181.755,293.622 181.773,293.382 182.038 C 292.216 183.327,282.928 183.592,281.415 182.380 C 280.235 181.435,278.375 180.693,276.710 180.505 C 271.093 179.869,267.329 178.202,265.589 175.581 L 264.982 174.667 261.949 174.674 L 258.917 174.681 258.522 175.299 C 258.304 175.639,256.654 178.186,254.855 180.959 C 253.056 183.733,251.263 186.508,250.872 187.126 L 250.161 188.250 285.081 188.292 C 304.286 188.315,335.708 188.315,354.906 188.292 L 389.812 188.250 389.281 187.642 C 388.989 187.307,388.262 186.450,387.667 185.736 C 387.071 185.022,386.471 184.318,386.333 184.171 C 386.196 184.025,385.528 183.232,384.849 182.411 C 384.170 181.589,383.531 180.842,383.428 180.750 C 383.326 180.658,382.944 180.210,382.580 179.753 C 381.866 178.859,381.099 177.964,380.615 177.460 C 380.207 177.036,380.227 177.007,381.740 175.849 C 383.865 174.224,385.355 172.852,389.208 168.977 L 392.833 165.332 392.833 164.270 C 392.833 162.620,392.356 156.594,392.085 154.833 C 391.515 151.116,391.092 148.667,390.835 147.583 C 390.748 147.217,390.446 145.942,390.164 144.750 C 389.882 143.558,389.546 142.321,389.416 142.000 C 389.287 141.679,388.841 140.245,388.425 138.813 C 387.275 134.846,385.302 129.408,383.317 124.728 L 382.318 122.372 380.575 121.751 L 378.832 121.130 380.707 119.700 C 388.951 113.418,391.833 107.411,388.180 104.127 C 387.187 103.234,386.789 103.097,386.312 103.484 C 385.816 103.885,386.028 104.422,386.845 104.839 C 388.965 105.921,388.973 108.488,386.866 111.667 C 384.842 114.721,378.127 120.658,376.953 120.432 C 376.110 120.269,376.007 120.136,375.687 118.793 L 375.386 117.529 375.818 117.333 C 379.208 115.790,383.999 109.790,384.412 106.572 C 384.451 106.262,384.565 105.857,384.664 105.671 C 384.764 105.485,384.778 105.333,384.696 105.333 C 384.614 105.333,384.495 104.340,384.432 103.125 C 384.240 99.457,383.722 95.811,382.886 92.250 C 382.328 89.878,382.417 89.975,381.333 90.536 M64.145 91.178 C 64.565 91.930,63.956 93.167,63.167 93.167 C 62.699 93.167,62.167 92.582,62.167 92.067 C 62.167 90.841,63.598 90.198,64.145 91.178 M61.014 91.938 C 60.760 92.853,60.772 93.795,61.033 93.533 C 61.593 92.974,63.167 93.389,63.167 94.096 C 63.167 94.651,62.758 94.887,61.956 94.797 C 61.297 94.722,61.232 94.752,60.999 95.233 C 60.485 96.297,58.000 96.104,58.000 95.000 C 58.000 94.777,58.720 94.787,58.945 95.012 C 59.044 95.110,59.378 95.167,59.687 95.137 L 60.250 95.083 60.259 93.667 C 60.269 92.140,60.675 90.775,61.017 91.117 C 61.141 91.241,61.140 91.485,61.014 91.938 M72.192 93.533 C 71.812 93.888,71.500 94.214,71.500 94.257 C 71.500 94.301,71.275 94.647,71.000 95.026 C 70.197 96.134,70.547 97.058,72.137 98.028 C 72.474 98.234,72.825 98.497,72.917 98.613 C 73.128 98.880,75.626 99.763,75.768 99.621 C 76.512 98.877,74.936 97.080,73.083 96.559 L 72.083 96.279 72.917 96.062 C 74.116 95.749,76.822 95.458,77.896 95.526 L 78.817 95.583 78.371 95.118 C 76.532 93.201,73.407 92.400,72.192 93.533 M363.700 94.185 C 365.414 94.545,368.693 96.474,368.955 97.276 C 369.174 97.949,367.967 97.670,367.056 96.837 C 365.496 95.411,363.625 94.634,361.167 94.391 C 360.171 94.293,360.018 94.245,360.417 94.154 C 361.219 93.970,362.746 93.985,363.700 94.185 M57.952 97.148 C 58.338 97.342,58.844 97.500,59.077 97.500 C 59.619 97.500,59.614 97.719,59.061 98.155 C 58.050 98.949,56.333 97.936,56.333 96.545 L 56.333 95.938 56.792 96.367 C 57.044 96.603,57.566 96.955,57.952 97.148 M362.595 96.945 C 363.700 97.320,365.428 98.406,365.371 98.689 C 365.345 98.814,365.055 99.648,364.725 100.542 L 364.125 102.167 363.540 102.167 C 361.849 102.167,361.442 101.087,362.407 99.162 L 362.982 98.018 362.402 97.509 C 362.083 97.229,361.749 97.000,361.661 97.000 C 361.572 97.000,361.500 96.925,361.500 96.833 C 361.500 96.607,361.641 96.621,362.595 96.945 M47.124 98.155 L 46.510 98.978 47.130 99.176 C 49.214 99.843,50.000 101.718,49.065 103.787 C 47.694 106.818,47.333 107.887,47.333 108.921 C 47.333 110.186,46.876 114.866,46.674 115.667 C 46.537 116.210,46.132 118.722,45.935 120.250 C 45.639 122.538,47.907 117.340,48.734 113.833 C 50.453 106.549,50.537 100.827,48.961 98.392 C 48.673 97.947,48.433 97.574,48.427 97.562 C 48.232 97.179,47.658 97.440,47.124 98.155 M377.775 98.898 C 379.702 99.188,381.413 99.984,382.625 101.155 C 383.675 102.170,383.788 102.592,382.792 101.775 C 381.143 100.425,379.360 99.808,376.955 99.758 C 375.409 99.726,375.126 99.677,374.919 99.402 C 374.562 98.931,374.605 98.860,375.292 98.788 C 375.635 98.752,375.992 98.711,376.083 98.696 C 376.175 98.681,376.936 98.772,377.775 98.898 M72.769 101.226 C 72.725 101.606,72.609 102.790,72.511 103.857 C 72.413 104.924,72.227 106.311,72.098 106.940 C 71.863 108.088,71.793 108.492,71.167 112.333 C 70.980 113.479,70.795 114.604,70.755 114.833 C 70.602 115.705,70.306 118.174,70.077 120.500 C 69.945 121.829,69.798 123.292,69.750 123.750 C 69.702 124.208,69.587 125.783,69.496 127.250 C 69.404 128.717,69.253 130.854,69.159 132.000 C 69.065 133.146,68.989 134.646,68.990 135.333 C 68.991 136.877,68.727 138.954,68.417 139.832 C 67.839 141.472,69.917 139.893,71.944 137.154 C 72.390 136.551,72.841 136.086,72.947 136.121 C 73.164 136.193,73.190 136.121,73.650 134.167 C 74.293 131.441,74.344 131.111,74.503 128.689 C 74.591 127.348,74.811 124.000,74.991 121.250 C 75.172 118.500,75.443 115.200,75.595 113.917 C 75.882 111.477,76.175 101.833,75.962 101.833 C 75.792 101.833,75.686 102.356,75.520 104.000 L 75.378 105.417 75.355 104.333 C 75.312 102.330,74.653 101.090,73.434 100.716 L 72.848 100.536 72.769 101.226 M368.265 104.350 C 367.063 107.424,367.020 107.579,367.295 107.884 C 367.640 108.266,369.318 109.140,370.250 109.423 L 370.917 109.626 370.167 109.831 C 368.698 110.234,366.750 109.712,365.354 108.543 L 364.792 108.072 367.104 104.551 C 368.376 102.614,369.441 101.053,369.470 101.082 C 369.499 101.110,368.957 102.581,368.265 104.350 M378.391 101.846 C 378.970 102.128,379.652 102.526,379.909 102.730 L 380.376 103.102 379.739 104.820 C 378.973 106.885,378.747 107.063,377.595 106.506 C 376.459 105.956,376.422 105.157,377.450 103.362 C 377.916 102.547,377.816 102.302,376.750 101.643 L 376.250 101.335 376.795 101.334 C 377.095 101.334,377.813 101.564,378.391 101.846 M53.168 104.917 C 53.150 111.268,51.472 115.664,47.605 119.494 C 46.175 120.911,46.089 121.179,47.371 120.228 C 47.854 119.869,48.512 119.392,48.833 119.169 C 49.890 118.435,51.902 116.547,52.792 115.457 C 54.023 113.948,55.034 110.752,54.833 109.000 C 54.574 106.731,54.183 104.597,53.849 103.628 C 53.224 101.813,53.177 101.902,53.168 104.917 M40.691 109.614 C 40.056 112.338,39.942 113.777,39.920 119.299 L 39.898 124.682 38.991 125.398 C 37.802 126.337,36.856 127.372,35.271 129.469 C 33.900 131.283,33.825 131.557,34.651 131.722 C 34.934 131.778,36.326 132.278,37.745 132.831 C 39.164 133.385,40.796 133.951,41.371 134.089 C 44.031 134.728,44.550 134.912,45.836 135.668 C 47.256 136.504,49.096 137.146,52.167 137.877 C 54.021 138.319,55.780 139.286,56.913 140.488 L 57.410 141.015 56.830 141.460 C 53.391 144.097,47.167 152.052,47.167 153.811 C 47.167 154.290,46.996 153.871,46.667 152.584 C 45.682 148.734,43.856 147.838,35.107 146.911 C 27.982 146.157,25.344 145.432,23.205 143.639 C 16.927 138.379,18.193 129.599,27.193 115.983 C 28.611 113.838,29.833 111.971,29.910 111.833 C 30.598 110.597,26.450 116.396,23.883 120.259 C 22.244 122.725,20.264 126.945,19.547 129.500 C 18.639 132.739,18.503 133.440,18.501 134.884 C 18.497 139.363,20.918 143.448,24.667 145.289 C 27.249 146.558,29.295 146.993,35.833 147.668 C 44.047 148.515,46.047 149.682,46.412 153.841 C 46.566 155.604,47.126 156.164,47.394 154.824 C 47.758 153.001,49.915 149.603,52.538 146.718 C 55.903 143.018,57.586 141.248,57.788 141.196 C 58.383 141.045,57.873 140.361,56.337 139.251 C 55.359 138.545,55.261 138.421,55.305 137.944 C 55.378 137.152,55.839 135.530,56.277 134.521 C 56.685 133.582,56.773 132.919,56.512 132.757 C 56.256 132.599,54.672 136.760,54.668 137.599 L 54.667 137.947 53.292 137.574 C 52.535 137.368,51.204 137.037,50.333 136.837 C 41.823 134.888,38.923 126.747,40.933 110.445 C 41.247 107.899,41.160 107.600,40.691 109.614 M366.925 113.316 C 368.193 113.779,369.991 114.117,371.667 114.209 L 372.417 114.250 371.253 114.833 C 368.378 116.275,364.618 115.218,363.412 112.628 C 362.724 111.151,362.832 111.075,364.292 112.004 C 365.003 112.456,366.188 113.047,366.925 113.316 M362.440 117.305 C 364.671 118.623,365.853 118.911,369.042 118.914 C 370.577 118.916,371.833 118.960,371.833 119.014 C 371.833 119.092,370.292 124.301,369.893 125.571 C 369.815 125.820,369.983 125.752,370.643 125.267 C 371.880 124.359,372.737 124.703,372.866 126.160 C 372.916 126.725,372.864 126.777,370.028 128.948 C 367.194 131.118,365.187 133.355,365.161 134.372 C 365.158 134.511,365.084 134.489,364.947 134.308 C 364.390 133.576,363.934 133.844,363.632 135.083 C 363.255 136.628,363.253 136.774,363.610 136.479 C 363.863 136.270,363.867 136.282,363.660 136.614 C 363.535 136.815,363.385 136.949,363.326 136.912 C 363.151 136.804,362.698 138.932,362.423 141.162 C 361.938 145.092,362.194 147.987,363.165 149.549 C 365.736 153.684,370.412 166.498,369.575 167.110 C 369.407 167.233,369.340 167.334,369.426 167.336 C 370.099 167.347,368.874 167.662,368.152 167.664 L 367.220 167.667 367.007 166.715 C 366.242 163.298,362.561 153.916,360.906 151.167 C 359.390 148.647,359.022 141.676,360.168 137.167 C 360.391 136.289,361.000 133.538,361.000 133.409 C 361.000 133.346,360.775 133.329,360.500 133.369 C 360.225 133.409,360.000 133.372,360.000 133.286 C 360.000 133.197,359.743 133.178,359.400 133.242 C 358.950 133.327,358.832 133.304,358.926 133.151 C 359.020 132.999,358.897 132.973,358.439 133.047 C 358.073 133.107,357.865 133.084,357.923 132.990 C 357.976 132.904,357.834 132.833,357.607 132.833 C 357.380 132.833,357.165 132.921,357.129 133.029 C 357.093 133.136,356.817 132.228,356.515 131.010 L 355.966 128.795 356.250 126.106 C 356.407 124.627,356.639 122.866,356.767 122.194 C 356.895 121.521,357.005 120.921,357.011 120.860 C 357.016 120.800,357.088 120.916,357.170 121.119 C 357.309 121.465,357.347 121.473,357.784 121.245 C 358.040 121.111,358.344 121.002,358.458 121.001 C 358.723 121.000,358.747 121.133,358.175 119.441 L 357.683 117.986 358.039 117.035 C 358.235 116.512,358.609 115.767,358.869 115.380 L 359.343 114.676 360.320 115.653 C 360.857 116.190,361.811 116.934,362.440 117.305 M82.837 121.198 C 82.844 123.697,83.479 126.233,84.486 127.791 C 85.193 128.885,85.191 129.000,84.472 129.000 C 84.212 129.000,84.000 129.072,84.000 129.159 C 84.000 129.363,85.079 129.569,85.434 129.433 C 85.583 129.376,85.944 129.477,86.237 129.658 C 88.670 131.162,92.696 130.510,95.181 128.210 C 95.728 127.703,96.271 127.337,96.432 127.366 C 96.916 127.453,96.862 127.090,96.314 126.575 L 95.789 126.083 95.870 126.533 C 96.219 128.484,89.937 130.453,87.119 129.276 C 84.963 128.375,83.170 124.606,83.167 120.968 C 83.167 120.630,83.092 120.307,83.000 120.250 C 82.895 120.185,82.835 120.539,82.837 121.198 M37.972 122.542 C 37.500 122.922,37.479 123.328,37.909 123.758 C 38.339 124.188,38.745 124.167,39.125 123.695 C 39.698 122.984,38.683 121.969,37.972 122.542 M40.128 125.208 C 40.147 127.672,41.679 131.548,43.389 133.458 C 43.638 133.737,43.664 133.833,43.487 133.833 C 42.889 133.832,39.876 132.901,37.800 132.076 C 36.542 131.576,35.435 131.167,35.340 131.167 C 34.782 131.167,36.349 128.938,38.884 126.125 C 40.211 124.652,40.124 124.716,40.128 125.208 M33.262 127.929 C 32.550 128.640,33.416 129.812,34.250 129.265 C 34.479 129.115,34.676 128.900,34.686 128.788 C 34.777 127.847,33.883 127.308,33.262 127.929 M64.917 132.313 C 64.178 132.869,62.916 133.584,61.663 134.157 C 61.431 134.263,60.608 134.402,59.833 134.466 C 57.227 134.683,57.705 136.029,60.805 137.207 C 62.489 137.846,62.954 138.273,63.716 139.879 C 64.756 142.071,65.757 142.833,67.594 142.834 L 68.583 142.834 66.917 141.125 C 66.000 140.186,64.788 138.734,64.224 137.900 L 63.198 136.383 63.808 136.111 C 65.393 135.403,66.409 133.650,66.086 132.180 C 65.947 131.545,65.936 131.546,64.917 132.313 M37.037 133.593 C 36.104 134.247,36.999 135.536,38.011 134.994 C 38.623 134.667,38.212 133.333,37.500 133.333 C 37.449 133.333,37.241 133.450,37.037 133.593 M74.446 134.125 C 74.392 134.469,74.301 135.350,74.243 136.083 C 74.022 138.882,73.403 140.972,72.410 142.274 C 71.708 143.194,72.134 143.327,73.001 142.458 C 74.168 141.290,74.517 139.916,74.758 135.542 C 74.866 133.569,74.670 132.678,74.446 134.125 M357.563 134.667 C 357.635 135.067,357.623 135.145,357.522 134.917 C 357.442 134.733,357.329 134.321,357.271 134.000 C 357.198 133.600,357.211 133.521,357.311 133.750 C 357.391 133.933,357.504 134.346,357.563 134.667 M364.667 135.167 C 364.471 135.442,364.273 135.667,364.227 135.667 C 364.181 135.667,364.304 135.442,364.500 135.167 C 364.696 134.892,364.894 134.667,364.939 134.667 C 364.985 134.667,364.862 134.892,364.667 135.167 M81.514 135.908 C 80.965 138.599,78.304 142.072,75.852 143.298 C 74.519 143.964,74.718 144.041,76.906 143.709 C 78.652 143.445,81.070 143.531,83.271 143.936 C 83.957 144.062,84.333 143.072,84.333 141.137 C 84.333 139.867,84.344 139.833,84.739 139.833 C 85.209 139.833,85.261 139.958,85.501 141.663 C 85.800 143.788,86.316 143.416,86.111 141.223 C 86.021 140.259,86.040 140.156,86.297 140.233 C 86.455 140.279,86.792 140.367,87.046 140.428 C 87.568 140.553,87.740 140.809,87.902 141.708 C 88.070 142.638,88.397 142.508,88.256 141.568 C 88.145 140.825,88.153 140.806,88.529 140.920 C 89.871 141.323,90.251 142.138,90.094 144.276 L 90.007 145.468 90.813 145.526 C 91.978 145.609,92.065 145.567,92.530 144.702 C 93.504 142.886,93.733 139.777,92.958 138.894 C 91.518 137.254,87.569 135.792,82.485 135.017 L 81.720 134.900 81.514 135.908 M42.000 135.333 C 41.599 135.734,41.583 135.973,41.926 136.463 C 42.241 136.912,42.849 136.943,43.224 136.529 C 44.013 135.657,42.830 134.503,42.000 135.333 M80.160 136.457 C 79.891 137.299,79.447 138.016,78.298 139.469 C 76.922 141.209,77.139 141.571,78.594 139.963 C 80.039 138.366,80.667 137.236,80.667 136.230 C 80.667 135.736,80.344 135.880,80.160 136.457 M78.828 136.958 C 78.719 137.302,78.524 137.752,78.394 137.958 C 78.265 138.165,78.227 138.333,78.310 138.333 C 78.615 138.333,79.570 136.626,79.375 136.431 C 79.164 136.219,79.017 136.360,78.828 136.958 M71.588 139.588 C 71.130 140.589,71.080 140.833,71.329 140.833 C 71.486 140.833,72.007 139.811,72.241 139.042 C 72.470 138.291,72.002 138.683,71.588 139.588 M377.423 145.167 C 377.678 145.946,378.664 148.758,379.614 151.417 L 381.341 156.250 378.045 159.456 C 376.233 161.220,374.712 162.663,374.667 162.664 C 374.621 162.664,373.971 161.098,373.222 159.184 L 371.861 155.702 374.285 149.589 C 375.618 146.227,376.765 143.538,376.834 143.613 C 376.902 143.688,377.167 144.387,377.423 145.167 M303.000 149.917 C 302.771 150.048,302.508 150.155,302.417 150.155 C 302.325 150.155,302.438 150.048,302.667 149.917 C 302.896 149.786,303.158 149.678,303.250 149.678 C 303.342 149.678,303.229 149.786,303.000 149.917 M326.593 151.405 C 325.763 151.661,325.742 151.739,326.086 153.297 C 327.409 159.299,329.594 162.833,331.981 162.833 C 333.756 162.833,334.013 162.431,333.680 160.170 C 333.565 159.389,333.409 157.362,333.334 155.667 C 333.154 151.640,332.880 151.204,330.864 151.727 C 330.096 151.926,329.983 151.914,329.310 151.562 C 328.505 151.141,327.613 151.089,326.593 151.405 M66.365 154.626 C 63.145 156.354,62.728 158.943,64.913 163.667 C 65.400 164.721,66.025 166.073,66.302 166.670 C 66.578 167.268,67.417 168.918,68.165 170.337 C 68.913 171.756,69.895 173.765,70.347 174.801 C 72.632 180.039,72.500 179.867,74.139 179.749 C 76.599 179.570,77.884 179.161,77.080 178.812 C 74.418 177.657,73.064 176.116,72.376 173.460 C 71.739 170.996,71.297 169.329,70.954 168.083 C 70.745 167.323,69.522 162.810,69.419 162.417 C 69.395 162.325,69.357 162.175,69.335 162.083 C 69.312 161.992,69.220 161.729,69.130 161.500 C 68.984 161.128,68.088 158.055,67.746 156.750 C 67.674 156.475,67.591 156.175,67.561 156.083 C 67.532 155.992,67.418 155.560,67.309 155.125 C 67.083 154.224,67.099 154.233,66.365 154.626 M54.230 157.825 C 51.294 158.526,48.956 161.576,45.914 168.674 C 43.380 174.586,42.441 179.160,43.228 181.750 L 43.431 182.417 44.840 182.405 C 47.888 182.379,48.618 181.952,47.068 181.104 C 46.801 180.958,46.212 180.508,45.759 180.103 L 44.934 179.367 45.242 178.684 C 45.412 178.308,45.603 178.000,45.667 178.000 C 45.757 178.000,46.246 177.008,46.407 176.500 C 46.448 176.371,47.149 174.872,47.770 173.584 C 48.080 172.943,48.333 172.363,48.333 172.296 C 48.333 172.171,50.291 168.104,53.512 161.536 C 55.682 157.112,55.607 157.496,54.230 157.825 M343.833 162.975 C 343.833 164.424,344.486 164.834,347.708 165.404 C 348.486 165.542,348.514 165.784,347.770 165.924 C 346.773 166.111,344.030 165.220,343.005 164.376 L 342.592 164.037 342.991 163.185 C 343.474 162.154,343.833 162.064,343.833 162.975 M349.713 166.185 C 352.240 167.448,352.324 168.000,349.986 168.000 C 348.133 168.000,348.128 167.999,348.252 167.625 C 348.320 167.419,348.411 166.894,348.454 166.458 C 348.547 165.519,348.432 165.544,349.713 166.185 M372.176 166.792 L 372.750 167.417 372.129 166.846 C 371.570 166.333,371.466 166.295,371.080 166.471 C 370.497 166.737,370.370 166.717,370.760 166.422 C 371.264 166.041,371.556 166.117,372.176 166.792 M374.167 169.167 C 374.362 169.442,374.485 169.667,374.439 169.667 C 374.394 169.667,374.196 169.442,374.000 169.167 C 373.804 168.892,373.681 168.667,373.727 168.667 C 373.773 168.667,373.971 168.892,374.167 169.167 M377.310 176.500 C 377.310 176.658,377.257 176.627,377.167 176.417 C 377.088 176.233,377.023 175.971,377.023 175.833 C 377.023 175.676,377.076 175.707,377.167 175.917 C 377.245 176.100,377.310 176.362,377.310 176.500 " stroke="none" fill="#eee4e3" fill-rule="evenodd"></path><path id="path2" d="M322.583 51.356 C 315.917 51.829,307.635 53.893,301.863 56.521 C 301.284 56.784,300.774 57.000,300.730 57.000 C 300.436 57.000,295.085 59.840,293.464 60.856 C 285.955 65.562,279.816 71.203,274.807 78.000 C 273.433 79.865,270.988 83.576,270.470 84.583 C 268.010 89.369,267.573 90.277,266.662 92.500 C 265.973 94.179,264.441 98.803,264.094 100.250 C 263.940 100.892,263.751 101.642,263.673 101.917 C 263.543 102.376,263.242 103.814,262.836 105.917 C 261.526 112.699,261.664 122.730,263.170 130.167 C 263.719 132.878,263.884 133.552,264.675 136.333 C 265.104 137.842,265.918 140.175,266.491 141.542 C 266.577 141.748,266.929 142.592,267.272 143.417 C 268.258 145.787,270.129 149.392,271.618 151.792 C 272.493 153.201,272.378 153.160,273.333 152.399 C 275.421 150.735,275.789 150.636,283.483 149.662 C 293.362 148.411,296.427 147.974,296.596 147.789 C 296.616 147.768,296.837 146.625,297.086 145.250 C 298.332 138.374,302.931 123.541,304.650 120.852 C 304.780 120.649,310.755 119.230,339.000 112.694 L 341.750 112.058 342.063 111.071 C 342.235 110.528,342.396 110.059,342.422 110.029 C 342.464 109.981,346.806 110.791,351.250 111.676 L 352.917 112.008 353.356 111.471 L 353.796 110.933 352.576 107.342 C 350.944 102.535,350.658 101.402,350.548 99.319 C 350.373 95.990,351.551 94.333,354.094 94.333 C 354.707 94.333,355.001 94.266,355.002 94.125 C 355.006 93.626,355.841 92.189,356.528 91.500 L 357.276 90.750 357.472 89.025 C 358.867 76.710,364.696 70.264,373.767 71.005 C 375.609 71.155,375.602 71.163,374.495 70.131 C 370.854 66.735,370.055 66.061,367.212 63.983 C 364.794 62.216,361.991 60.333,361.778 60.333 C 361.713 60.333,361.344 60.134,360.957 59.890 C 359.919 59.234,356.115 57.313,354.583 56.671 C 353.850 56.363,352.875 55.947,352.417 55.746 C 344.633 52.335,332.972 50.619,322.583 51.356 M52.734 71.819 C 52.456 71.940,52.363 72.170,52.282 72.944 C 52.226 73.479,51.871 74.817,51.493 75.917 C 51.115 77.017,50.765 78.053,50.714 78.220 C 50.631 78.492,50.688 78.509,51.269 78.387 C 54.097 77.789,62.540 78.657,67.083 80.012 C 68.778 80.517,68.720 80.531,68.862 79.583 C 68.973 78.838,69.633 76.372,69.920 75.632 C 70.052 75.292,68.897 74.514,67.083 73.720 C 65.232 72.911,64.290 72.692,59.250 71.906 C 58.104 71.727,53.101 71.661,52.734 71.819 M352.900 95.983 C 351.291 96.964,351.474 99.799,353.542 105.949 C 354.761 109.574,354.880 109.788,355.076 108.710 C 355.139 108.365,355.436 107.446,355.737 106.667 C 356.264 105.299,356.284 105.162,356.303 102.681 L 356.322 100.112 355.657 98.764 C 355.266 97.973,354.949 97.055,354.889 96.542 L 354.787 95.667 354.102 95.667 C 353.724 95.668,353.185 95.809,352.900 95.983 M390.280 96.042 C 389.713 98.354,388.668 101.153,388.239 101.509 C 388.105 101.620,388.000 101.997,388.000 102.365 C 388.000 102.726,387.929 103.155,387.841 103.318 C 387.715 103.554,387.819 103.747,388.355 104.266 C 390.996 106.821,390.064 110.632,385.676 115.227 C 384.800 116.144,384.162 116.847,384.259 116.791 C 384.371 116.725,384.567 117.408,384.800 118.671 C 385.001 119.762,385.495 121.651,385.897 122.869 C 387.079 126.443,387.839 133.693,387.059 133.952 C 386.930 133.995,386.974 134.286,387.199 134.877 C 387.379 135.351,387.935 137.125,388.435 138.819 C 388.935 140.513,389.368 141.924,389.398 141.954 C 389.513 142.068,391.117 137.534,391.593 135.750 C 392.904 130.833,393.307 128.791,393.831 124.417 C 394.287 120.619,394.188 111.842,393.652 108.500 C 392.796 103.153,392.400 101.399,391.121 97.292 C 390.602 95.626,390.441 95.386,390.280 96.042 M74.532 96.810 C 74.368 96.914,74.423 97.020,74.754 97.237 C 75.486 97.717,76.185 99.668,75.625 99.666 C 75.510 99.666,74.832 99.447,74.117 99.180 L 72.818 98.694 72.867 99.633 C 72.915 100.536,72.938 100.578,73.464 100.728 C 74.638 101.064,75.312 102.348,75.355 104.333 L 75.378 105.417 75.520 104.000 C 75.686 102.356,75.792 101.833,75.962 101.833 C 76.175 101.833,75.882 111.477,75.595 113.917 C 75.443 115.200,75.172 118.500,74.991 121.250 C 74.811 124.000,74.591 127.348,74.503 128.689 C 74.344 131.111,74.293 131.441,73.650 134.167 C 73.190 136.121,73.164 136.193,72.947 136.121 C 72.841 136.086,72.390 136.551,71.944 137.154 C 69.920 139.889,67.839 141.472,68.416 139.836 C 68.679 139.090,69.000 136.969,69.000 135.975 C 69.000 135.239,68.637 135.187,67.530 135.765 C 67.285 135.893,66.990 135.998,66.875 135.999 C 66.760 136.000,66.667 136.075,66.667 136.167 C 66.667 136.258,66.569 136.333,66.450 136.333 C 66.138 136.333,65.051 137.500,64.839 138.063 C 64.346 139.372,69.195 143.735,71.500 144.057 C 71.912 144.114,72.438 144.196,72.667 144.238 C 72.896 144.280,73.533 144.214,74.083 144.091 C 74.633 143.968,75.015 143.860,74.932 143.850 C 74.848 143.841,75.252 143.598,75.828 143.309 C 78.161 142.144,80.726 138.935,81.426 136.307 C 81.816 134.842,81.853 134.890,80.208 134.740 C 79.406 134.666,78.694 134.592,78.625 134.574 C 78.556 134.556,78.042 134.532,77.483 134.521 L 76.466 134.500 76.564 131.458 C 76.807 123.942,76.868 122.391,76.932 122.000 C 76.970 121.771,77.076 120.346,77.167 118.833 C 77.258 117.321,77.368 115.671,77.411 115.167 C 77.580 113.175,77.977 105.346,77.993 103.675 L 78.000 102.932 78.625 103.541 C 79.998 104.879,82.408 105.294,84.750 104.595 C 86.080 104.198,87.593 104.180,88.292 104.553 C 88.916 104.886,88.921 104.868,88.571 103.503 C 88.322 102.532,88.327 102.385,88.668 100.697 C 89.157 98.275,89.100 97.765,88.333 97.703 C 87.722 97.653,87.397 97.883,86.500 98.997 C 84.267 101.771,81.594 102.428,80.526 100.465 C 79.908 99.330,79.512 98.985,79.113 99.238 C 78.177 99.830,77.722 98.781,78.242 97.231 C 78.416 96.713,75.251 96.354,74.532 96.810 M44.827 99.310 C 44.510 99.481,43.688 99.921,43.000 100.287 C 42.313 100.654,41.487 101.113,41.167 101.308 C 40.846 101.503,40.433 101.735,40.250 101.825 C 37.201 103.307,30.757 109.747,27.485 114.583 C 26.989 115.317,26.518 115.964,26.438 116.022 C 26.358 116.081,26.321 116.214,26.357 116.320 C 26.392 116.425,27.202 115.421,28.157 114.089 C 29.112 112.757,29.922 111.667,29.957 111.667 C 30.046 111.667,30.044 111.670,27.193 115.983 C 18.193 129.599,16.927 138.379,23.205 143.639 C 25.344 145.432,27.982 146.157,35.107 146.911 C 43.856 147.838,45.682 148.734,46.667 152.584 C 46.996 153.871,47.167 154.290,47.167 153.811 C 47.167 152.052,53.391 144.097,56.830 141.460 L 57.410 141.015 56.913 140.488 C 55.780 139.286,54.021 138.319,52.167 137.877 C 49.096 137.146,47.256 136.504,45.836 135.668 C 44.550 134.912,44.031 134.728,41.371 134.089 C 40.796 133.951,39.164 133.385,37.745 132.831 C 36.326 132.278,34.934 131.778,34.651 131.722 C 33.825 131.557,33.900 131.283,35.271 129.469 C 36.856 127.372,37.802 126.337,38.991 125.398 L 39.898 124.682 39.920 119.299 C 39.942 113.777,40.056 112.338,40.691 109.614 C 41.160 107.600,41.247 107.899,40.933 110.445 C 38.923 126.747,41.823 134.888,50.333 136.837 C 51.204 137.037,52.535 137.368,53.292 137.574 L 54.667 137.947 54.668 137.599 C 54.672 136.760,56.256 132.599,56.512 132.757 C 56.597 132.810,56.667 132.783,56.667 132.697 C 56.667 132.533,56.356 132.451,54.333 132.079 C 48.185 130.949,46.805 129.519,45.602 123.024 L 45.375 121.798 47.112 120.024 C 50.453 116.610,52.423 112.890,52.993 108.917 C 53.228 107.280,53.221 102.947,52.984 103.093 C 52.577 103.345,51.449 103.177,50.840 102.774 L 50.216 102.362 50.111 104.318 C 49.762 110.810,47.944 118.189,46.105 120.583 C 45.864 120.897,45.854 120.876,45.935 120.250 C 46.132 118.722,46.537 116.210,46.674 115.667 C 46.876 114.866,47.333 110.186,47.333 108.921 C 47.333 107.887,47.694 106.818,49.065 103.787 C 50.382 100.874,47.526 97.858,44.827 99.310 M53.217 101.875 C 53.266 102.081,53.501 102.762,53.738 103.387 C 54.159 104.494,54.542 106.460,54.834 109.000 C 54.966 110.149,54.938 110.369,54.489 111.718 C 53.910 113.457,53.891 113.870,54.338 115.035 C 55.885 119.071,58.854 122.365,60.558 121.938 C 61.548 121.689,64.778 118.686,66.585 116.333 C 67.042 115.737,67.454 115.212,67.500 115.167 C 67.995 114.672,70.320 110.814,71.065 109.250 C 72.139 106.997,72.263 106.588,72.428 104.750 L 72.533 103.583 71.072 103.005 C 70.269 102.686,69.289 102.212,68.894 101.950 C 68.223 101.506,67.833 101.469,67.833 101.849 C 67.833 103.278,62.876 112.922,61.125 114.900 C 60.965 115.081,60.833 115.302,60.833 115.391 C 60.833 116.329,58.616 112.715,57.168 109.417 C 56.800 108.579,56.115 107.104,55.066 104.888 C 54.755 104.231,54.500 103.655,54.500 103.608 C 54.500 103.464,53.299 101.500,53.211 101.500 C 53.165 101.500,53.168 101.669,53.217 101.875 M385.833 105.716 C 384.601 106.659,384.614 106.625,384.346 109.500 C 383.891 114.388,384.087 115.128,385.423 113.556 C 388.263 110.214,389.114 107.612,387.944 105.845 C 387.241 104.782,387.068 104.771,385.833 105.716 M39.000 122.667 C 39.512 123.179,39.339 123.806,38.616 124.058 C 38.205 124.202,37.465 123.461,37.608 123.051 C 37.861 122.327,38.488 122.154,39.000 122.667 M38.884 126.125 C 36.349 128.938,34.782 131.167,35.340 131.167 C 35.435 131.167,36.542 131.576,37.800 132.076 C 39.821 132.879,42.885 133.832,43.452 133.833 C 43.638 133.833,42.877 132.665,42.083 131.733 C 41.758 131.351,39.848 130.741,37.551 130.286 L 36.685 130.114 37.112 129.349 C 37.680 128.331,39.045 126.363,39.667 125.666 C 40.108 125.172,40.287 124.833,40.107 124.833 C 40.074 124.833,39.524 125.415,38.884 126.125 M34.373 127.875 C 35.213 128.523,34.303 129.846,33.417 129.265 C 32.938 128.951,32.865 128.325,33.262 127.929 C 33.577 127.613,34.007 127.592,34.373 127.875 M37.963 133.593 C 38.678 134.094,38.322 135.167,37.440 135.167 C 37.065 135.167,36.667 134.693,36.667 134.248 C 36.667 133.912,37.194 133.333,37.500 133.333 C 37.551 133.333,37.759 133.450,37.963 133.593 M74.758 135.542 C 74.517 139.916,74.168 141.290,73.001 142.458 C 72.134 143.327,71.708 143.194,72.410 142.274 C 73.403 140.972,74.022 138.882,74.243 136.083 C 74.502 132.820,74.932 132.367,74.758 135.542 M357.271 134.000 C 357.329 134.321,357.442 134.733,357.522 134.917 C 357.623 135.145,357.635 135.067,357.563 134.667 C 357.504 134.346,357.391 133.933,357.311 133.750 C 357.211 133.521,357.198 133.600,357.271 134.000 M360.944 133.779 C 360.607 134.958,360.310 136.507,360.385 136.693 C 360.439 136.830,360.480 136.788,360.489 136.583 C 360.497 136.400,360.650 135.654,360.829 134.925 C 361.008 134.196,361.127 133.571,361.093 133.537 C 361.058 133.503,360.991 133.612,360.944 133.779 M18.385 134.917 C 18.386 135.467,18.417 135.672,18.454 135.372 C 18.491 135.072,18.490 134.622,18.452 134.372 C 18.414 134.122,18.384 134.367,18.385 134.917 M363.346 135.647 C 363.134 136.583,363.007 137.395,363.063 137.452 C 363.120 137.509,363.167 137.389,363.167 137.185 C 363.167 136.981,363.227 136.851,363.300 136.896 C 363.373 136.941,363.535 136.815,363.660 136.614 C 363.867 136.282,363.863 136.270,363.610 136.479 C 363.256 136.771,363.254 136.605,363.592 135.300 C 363.734 134.751,363.824 134.222,363.791 134.124 C 363.759 134.026,363.558 134.711,363.346 135.647 M364.500 135.167 C 364.304 135.442,364.181 135.667,364.227 135.667 C 364.273 135.667,364.471 135.442,364.667 135.167 C 364.862 134.892,364.985 134.667,364.939 134.667 C 364.894 134.667,364.696 134.892,364.500 135.167 M43.130 135.259 C 43.803 135.731,43.409 136.833,42.567 136.833 C 41.809 136.833,41.450 135.884,42.000 135.333 C 42.401 134.932,42.640 134.917,43.130 135.259 M80.667 136.230 C 80.667 137.236,80.039 138.366,78.594 139.963 C 77.139 141.571,76.922 141.209,78.298 139.469 C 79.447 138.016,79.891 137.299,80.160 136.457 C 80.344 135.880,80.667 135.736,80.667 136.230 M79.375 136.431 C 79.570 136.626,78.615 138.333,78.310 138.333 C 78.227 138.333,78.265 138.165,78.394 137.958 C 78.524 137.752,78.719 137.302,78.828 136.958 C 79.017 136.360,79.164 136.219,79.375 136.431 M360.113 137.367 C 360.061 137.578,359.979 138.162,359.931 138.667 C 359.855 139.450,359.878 139.402,360.082 138.342 C 360.305 137.190,360.326 136.497,360.113 137.367 M55.280 138.233 C 55.232 138.357,55.741 138.837,56.505 139.389 C 57.223 139.909,57.859 140.485,57.917 140.669 C 58.017 140.983,58.065 140.969,58.720 140.432 C 59.104 140.118,59.744 139.675,60.144 139.448 L 60.870 139.036 59.994 138.848 C 59.512 138.744,58.359 138.548,57.434 138.411 C 56.508 138.274,55.662 138.130,55.555 138.091 C 55.448 138.053,55.324 138.116,55.280 138.233 M72.241 139.042 C 72.007 139.811,71.486 140.833,71.329 140.833 C 71.080 140.833,71.130 140.589,71.588 139.588 C 72.002 138.683,72.470 138.291,72.241 139.042 M84.333 141.146 C 84.333 141.894,84.224 142.767,84.080 143.176 C 83.768 144.061,83.798 144.091,85.336 144.429 C 86.022 144.579,87.033 144.810,87.583 144.941 C 89.715 145.451,89.937 145.441,90.059 144.831 C 90.346 143.393,89.966 141.527,89.323 141.226 C 88.209 140.705,88.131 140.730,88.256 141.568 C 88.397 142.508,88.070 142.638,87.902 141.708 C 87.740 140.809,87.568 140.553,87.046 140.428 C 86.792 140.367,86.455 140.279,86.297 140.233 C 86.040 140.156,86.021 140.259,86.111 141.223 C 86.316 143.416,85.800 143.788,85.501 141.663 C 85.261 139.958,85.209 139.833,84.739 139.833 C 84.344 139.833,84.333 139.867,84.333 141.146 M359.608 140.453 C 359.551 140.800,359.513 141.421,359.524 141.833 C 359.539 142.368,359.584 142.204,359.684 141.259 C 359.831 139.866,359.785 139.382,359.608 140.453 M60.811 141.847 C 57.083 144.087,51.667 149.630,51.667 151.205 C 51.667 151.385,54.976 150.754,58.583 149.887 C 62.920 148.845,64.366 148.690,66.931 148.994 C 67.897 149.108,68.729 149.160,68.780 149.108 C 69.018 148.871,66.258 144.343,65.755 144.142 C 64.734 143.737,63.545 142.819,62.884 141.926 L 62.205 141.009 60.811 141.847 M56.409 142.542 L 55.750 143.250 56.458 142.591 C 57.117 141.978,57.243 141.833,57.117 141.833 C 57.090 141.833,56.771 142.152,56.409 142.542 M54.333 144.750 C 53.650 145.438,53.129 146.000,53.175 146.000 C 53.221 146.000,53.817 145.438,54.500 144.750 C 55.183 144.063,55.704 143.500,55.658 143.500 C 55.612 143.500,55.016 144.063,54.333 144.750 M52.158 147.125 L 51.583 147.750 52.208 147.176 C 52.790 146.641,52.910 146.500,52.783 146.500 C 52.755 146.500,52.474 146.781,52.158 147.125 M376.667 147.081 C 376.162 147.293,375.604 147.493,375.425 147.525 C 375.171 147.571,374.748 148.464,373.479 151.639 L 371.858 155.694 373.220 159.179 C 373.970 161.097,374.621 162.664,374.667 162.664 C 374.712 162.663,376.233 161.220,378.045 159.456 L 381.339 156.250 379.630 151.458 C 378.689 148.823,377.844 146.673,377.752 146.681 C 377.659 146.689,377.171 146.869,376.667 147.081 M307.385 150.083 C 307.386 150.633,307.417 150.838,307.454 150.539 C 307.491 150.239,307.490 149.789,307.452 149.539 C 307.414 149.288,307.384 149.533,307.385 150.083 M302.667 149.917 C 302.438 150.048,302.325 150.155,302.417 150.155 C 302.508 150.155,302.771 150.048,303.000 149.917 C 303.229 149.786,303.342 149.678,303.250 149.678 C 303.158 149.678,302.896 149.786,302.667 149.917 M307.519 151.625 C 307.505 151.896,307.396 152.001,307.125 152.003 C 306.919 152.004,306.637 152.079,306.500 152.169 C 306.324 152.284,306.422 152.302,306.833 152.228 C 307.554 152.098,307.720 151.956,307.618 151.559 C 307.553 151.305,307.535 151.316,307.519 151.625 M305.250 152.676 C 304.883 152.849,304.696 152.990,304.833 152.989 C 304.971 152.987,305.346 152.842,305.667 152.667 C 306.415 152.257,306.122 152.263,305.250 152.676 M297.012 154.083 C 297.012 154.175,297.119 154.438,297.250 154.667 C 297.381 154.896,297.488 155.008,297.488 154.917 C 297.488 154.825,297.381 154.563,297.250 154.333 C 297.119 154.104,297.012 153.992,297.012 154.083 M298.359 156.843 C 298.568 157.215,298.840 157.603,298.965 157.707 C 299.089 157.810,298.949 157.505,298.654 157.030 C 298.017 156.006,297.817 155.879,298.359 156.843 M342.991 163.185 L 342.592 164.037 343.005 164.376 C 344.030 165.220,346.773 166.111,347.770 165.924 C 348.514 165.784,348.486 165.542,347.708 165.404 C 344.486 164.834,343.833 164.424,343.833 162.975 C 343.833 162.064,343.474 162.154,342.991 163.185 M348.500 166.250 C 348.500 166.571,348.529 166.833,348.565 166.833 C 348.601 166.833,348.661 166.571,348.698 166.250 C 348.736 165.929,348.706 165.667,348.633 165.667 C 348.560 165.667,348.500 165.929,348.500 166.250 M370.760 166.422 C 370.370 166.717,370.497 166.737,371.080 166.471 C 371.466 166.295,371.570 166.333,372.129 166.846 L 372.750 167.417 372.176 166.792 C 371.556 166.117,371.264 166.041,370.760 166.422 M348.268 167.430 C 348.064 167.961,348.191 168.000,350.042 167.965 L 351.917 167.929 350.116 167.876 C 348.412 167.825,348.320 167.804,348.418 167.494 C 348.542 167.105,348.414 167.050,348.268 167.430 M374.000 169.167 C 374.196 169.442,374.394 169.667,374.439 169.667 C 374.485 169.667,374.362 169.442,374.167 169.167 C 373.971 168.892,373.773 168.667,373.727 168.667 C 373.681 168.667,373.804 168.892,374.000 169.167 M28.998 169.310 C 28.421 169.887,28.289 171.442,28.743 172.319 C 29.577 173.933,33.909 173.891,34.589 172.262 C 35.054 171.149,34.918 169.768,34.292 169.239 L 33.750 168.782 33.699 169.377 C 33.639 170.076,33.555 170.119,31.964 170.258 C 30.402 170.395,29.833 170.196,29.833 169.514 C 29.833 168.804,29.569 168.739,28.998 169.310 M370.462 175.789 C 370.924 175.830,371.135 175.917,371.061 176.036 C 370.994 176.145,371.025 176.171,371.141 176.099 C 371.556 175.843,371.296 175.668,370.542 175.696 L 369.750 175.725 370.462 175.789 M377.023 175.833 C 377.023 175.971,377.088 176.233,377.167 176.417 C 377.257 176.627,377.310 176.658,377.310 176.500 C 377.310 176.362,377.245 176.100,377.167 175.917 C 377.076 175.707,377.023 175.676,377.023 175.833 M365.455 175.954 C 365.750 175.990,366.275 175.991,366.621 175.955 C 366.967 175.919,366.725 175.889,366.083 175.888 C 365.442 175.887,365.159 175.917,365.455 175.954 M363.711 177.120 C 363.964 177.158,364.339 177.157,364.544 177.117 C 364.749 177.078,364.542 177.046,364.083 177.048 C 363.625 177.049,363.457 177.081,363.711 177.120 M367.542 177.115 C 367.702 177.157,367.965 177.157,368.125 177.115 C 368.285 177.073,368.154 177.039,367.833 177.039 C 367.512 177.039,367.381 177.073,367.542 177.115 " stroke="none" fill="#a56fad" fill-rule="evenodd"></path><path id="path3" d="M54.525 86.605 C 54.089 89.024,52.841 92.488,51.782 94.220 C 51.354 94.920,51.315 95.081,51.481 95.470 C 51.660 95.888,51.656 95.896,51.418 95.591 C 51.167 95.270,51.158 95.272,50.877 95.674 C 50.535 96.163,49.896 96.801,49.295 97.254 C 48.496 97.855,48.931 99.172,49.895 99.069 C 50.333 99.023,50.347 99.037,50.063 99.245 C 49.893 99.369,49.700 99.438,49.635 99.397 C 49.570 99.357,49.620 99.645,49.746 100.037 C 49.872 100.429,50.023 101.108,50.082 101.547 C 50.242 102.739,52.286 103.800,53.001 103.062 C 53.188 102.868,53.263 101.458,53.100 101.194 C 53.028 101.077,53.086 100.824,53.234 100.618 C 53.379 100.415,53.616 100.087,53.761 99.887 C 54.011 99.542,54.001 99.511,53.554 99.269 C 53.295 99.128,53.145 99.010,53.219 99.007 C 53.294 99.003,53.500 99.078,53.678 99.173 C 53.905 99.294,54.000 99.291,54.000 99.163 C 54.000 99.062,54.094 99.035,54.208 99.102 C 54.323 99.169,54.274 99.061,54.099 98.862 C 53.722 98.432,53.360 98.371,53.683 98.792 C 53.806 98.952,53.703 98.902,53.453 98.679 C 52.983 98.260,52.856 98.058,53.195 98.268 C 53.333 98.353,53.350 98.295,53.253 98.069 C 52.796 97.005,53.573 93.020,54.432 92.021 C 54.461 91.987,54.719 92.194,55.005 92.480 C 55.803 93.277,56.667 93.117,56.667 92.170 C 56.667 91.582,56.286 91.088,55.632 90.828 C 55.330 90.707,55.065 90.597,55.042 90.583 C 55.020 90.568,55.124 90.188,55.274 89.737 C 55.714 88.411,55.838 88.333,57.503 88.333 C 58.301 88.333,59.352 88.258,59.838 88.166 C 60.907 87.963,60.919 87.973,60.593 88.752 C 60.450 89.094,60.333 89.477,60.333 89.604 C 60.333 89.955,62.104 89.896,63.360 89.502 C 64.360 89.189,64.429 89.187,64.644 89.461 C 64.811 89.673,64.853 89.684,64.801 89.500 C 64.762 89.362,64.491 89.143,64.198 89.012 C 63.906 88.880,63.667 88.670,63.667 88.543 C 63.667 88.359,63.423 88.333,62.458 88.414 C 61.336 88.507,61.285 88.498,61.750 88.282 C 62.633 87.870,64.245 85.856,63.938 85.549 C 63.899 85.510,63.187 85.705,62.356 85.983 C 61.526 86.262,60.345 86.582,59.733 86.694 L 58.621 86.899 59.175 87.086 C 60.258 87.451,59.985 87.709,58.644 87.589 C 57.596 87.496,57.321 87.529,56.761 87.821 C 55.702 88.372,56.075 87.806,57.269 87.051 C 57.542 86.879,57.484 86.849,56.833 86.820 C 56.384 86.801,56.250 86.760,56.500 86.718 C 58.213 86.431,59.036 85.667,57.634 85.667 C 57.129 85.667,56.269 85.620,55.724 85.563 L 54.732 85.459 54.525 86.605 M66.167 87.540 C 65.754 87.730,65.109 87.968,64.734 88.068 L 64.051 88.250 64.575 88.595 C 65.333 89.094,66.722 88.727,66.990 87.957 C 67.309 87.042,67.280 87.027,66.167 87.540 M357.301 90.875 C 356.360 91.548,355.763 92.252,355.336 93.191 C 354.880 94.197,354.893 94.229,355.854 94.457 C 356.880 94.701,357.167 94.914,357.167 95.431 C 357.167 95.818,356.625 96.264,356.357 96.098 C 356.282 96.052,355.899 95.942,355.505 95.853 L 354.790 95.692 354.890 96.555 C 354.989 97.401,355.995 99.660,356.638 100.478 C 356.946 100.871,356.948 100.867,357.060 99.154 C 357.143 97.890,357.249 97.347,357.461 97.096 C 357.691 96.825,357.695 96.798,357.481 96.963 C 357.250 97.140,357.220 97.117,357.268 96.793 C 357.299 96.586,357.444 95.605,357.591 94.614 C 357.822 93.051,358.113 91.673,358.433 90.625 C 358.571 90.176,358.149 90.269,357.301 90.875 M60.554 91.595 C 60.361 92.038,60.265 92.709,60.259 93.667 L 60.250 95.083 59.687 95.137 C 59.378 95.167,59.044 95.110,58.945 95.012 C 58.720 94.787,58.000 94.777,58.000 95.000 C 58.000 96.104,60.485 96.297,60.999 95.233 C 61.232 94.752,61.297 94.722,61.956 94.797 C 62.758 94.887,63.167 94.651,63.167 94.096 C 63.167 93.545,62.844 93.333,62.000 93.333 C 61.578 93.333,61.143 93.423,61.033 93.533 C 60.772 93.795,60.760 92.853,61.014 91.938 C 61.279 90.986,60.934 90.729,60.554 91.595 M366.708 91.448 C 366.869 91.490,367.131 91.490,367.292 91.448 C 367.452 91.406,367.321 91.372,367.000 91.372 C 366.679 91.372,366.548 91.406,366.708 91.448 M62.205 92.000 C 62.205 92.321,62.240 92.452,62.282 92.292 C 62.323 92.131,62.323 91.869,62.282 91.708 C 62.240 91.548,62.205 91.679,62.205 92.000 M368.544 91.620 C 368.797 91.658,369.172 91.657,369.377 91.617 C 369.582 91.578,369.375 91.546,368.917 91.548 C 368.458 91.549,368.291 91.581,368.544 91.620 M376.708 91.615 C 376.869 91.657,377.131 91.657,377.292 91.615 C 377.452 91.573,377.321 91.539,377.000 91.539 C 376.679 91.539,376.548 91.573,376.708 91.615 M372.381 91.790 C 372.912 91.823,373.737 91.823,374.214 91.789 C 374.692 91.756,374.258 91.729,373.250 91.729 C 372.242 91.729,371.851 91.757,372.381 91.790 M73.930 92.379 C 72.936 92.695,73.014 92.940,74.142 93.042 C 75.379 93.154,77.036 93.926,78.083 94.877 L 78.861 95.583 77.055 95.598 C 75.312 95.612,72.373 96.006,73.113 96.127 C 73.312 96.160,73.559 96.287,73.660 96.409 C 73.809 96.588,73.709 96.585,73.151 96.393 C 72.769 96.261,72.373 96.182,72.270 96.218 C 72.028 96.301,73.846 96.834,74.359 96.831 C 74.636 96.829,74.685 96.787,74.528 96.688 C 74.224 96.495,75.087 96.333,76.424 96.333 C 77.561 96.333,78.051 96.449,77.906 96.684 C 77.855 96.766,77.931 96.833,78.073 96.833 C 78.216 96.833,78.333 96.746,78.333 96.639 C 78.333 96.532,78.375 96.486,78.426 96.538 C 78.478 96.589,78.403 96.910,78.260 97.252 C 77.672 98.658,78.136 99.797,79.083 99.278 C 79.571 99.010,79.710 99.026,80.125 99.393 L 80.500 99.725 80.500 98.747 C 80.500 97.835,80.483 97.791,80.241 98.093 C 79.992 98.404,79.989 98.402,80.163 98.042 C 80.263 97.835,80.422 97.667,80.516 97.667 C 80.610 97.667,80.650 97.608,80.606 97.537 C 80.562 97.466,80.666 96.997,80.838 96.495 L 81.149 95.583 80.033 94.453 C 78.157 92.552,75.853 91.770,73.930 92.379 M360.077 93.708 L 359.250 94.583 360.125 93.756 C 360.606 93.301,361.000 92.908,361.000 92.881 C 361.000 92.757,360.846 92.895,360.077 93.708 M362.375 94.115 C 362.535 94.157,362.798 94.157,362.958 94.115 C 363.119 94.073,362.988 94.039,362.667 94.039 C 362.346 94.039,362.215 94.073,362.375 94.115 M361.542 94.448 C 361.702 94.490,361.965 94.490,362.125 94.448 C 362.285 94.406,362.154 94.372,361.833 94.372 C 361.512 94.372,361.381 94.406,361.542 94.448 M77.961 95.786 C 77.711 95.824,77.261 95.825,76.961 95.787 C 76.662 95.750,76.867 95.719,77.417 95.718 C 77.967 95.717,78.212 95.748,77.961 95.786 M75.292 95.948 C 75.131 95.990,74.869 95.990,74.708 95.948 C 74.548 95.906,74.679 95.872,75.000 95.872 C 75.321 95.872,75.452 95.906,75.292 95.948 M70.165 96.417 C 70.058 96.692,69.822 97.479,69.641 98.167 C 69.460 98.854,69.173 99.942,69.003 100.583 C 68.630 101.999,68.588 101.940,70.634 102.828 C 72.728 103.736,72.597 103.805,72.725 101.724 C 72.911 98.678,72.889 98.412,72.437 98.206 C 71.795 97.914,70.801 96.962,70.572 96.420 L 70.359 95.917 70.165 96.417 M367.250 97.000 C 367.608 97.367,367.938 97.667,367.984 97.667 C 368.030 97.667,367.775 97.367,367.417 97.000 C 367.059 96.633,366.728 96.333,366.682 96.333 C 366.637 96.333,366.892 96.633,367.250 97.000 M368.429 96.849 C 368.697 97.179,368.950 97.420,368.991 97.385 C 369.033 97.351,368.813 97.081,368.504 96.786 L 367.941 96.250 368.429 96.849 M75.796 96.622 C 76.188 96.657,76.788 96.657,77.129 96.621 C 77.471 96.585,77.150 96.557,76.417 96.557 C 75.683 96.558,75.404 96.587,75.796 96.622 M61.744 97.708 L 60.917 98.583 61.792 97.756 C 62.273 97.301,62.667 96.908,62.667 96.881 C 62.667 96.757,62.512 96.895,61.744 97.708 M52.667 97.542 C 52.913 97.877,52.953 97.993,52.773 97.847 C 52.499 97.625,52.086 97.000,52.213 97.000 C 52.245 97.000,52.449 97.244,52.667 97.542 M384.039 98.667 C 384.039 98.987,384.073 99.119,384.115 98.958 C 384.157 98.798,384.157 98.535,384.115 98.375 C 384.073 98.215,384.039 98.346,384.039 98.667 M51.250 98.833 C 50.791 99.030,50.628 99.030,50.750 98.833 C 50.807 98.742,51.017 98.672,51.218 98.678 C 51.570 98.690,51.571 98.695,51.250 98.833 M385.800 102.711 C 385.094 104.566,384.468 106.215,384.407 106.375 C 384.234 106.835,384.501 106.723,385.722 105.821 L 386.862 104.981 386.419 104.571 C 385.654 103.862,386.290 102.932,387.212 103.411 C 388.069 103.856,388.346 101.782,387.646 100.156 C 387.164 99.035,387.239 98.931,385.800 102.711 M367.104 104.551 L 364.792 108.072 365.354 108.543 C 366.750 109.712,368.698 110.234,370.167 109.831 L 370.917 109.626 370.250 109.423 C 369.318 109.140,367.640 108.266,367.295 107.884 C 367.020 107.579,367.063 107.424,368.265 104.350 C 368.957 102.581,369.499 101.110,369.470 101.082 C 369.441 101.053,368.376 102.614,367.104 104.551 M382.889 101.590 C 382.889 101.723,383.026 101.956,383.194 102.108 C 383.363 102.261,383.500 102.306,383.500 102.210 C 383.500 102.114,383.383 101.991,383.239 101.936 C 383.096 101.881,383.022 101.765,383.075 101.679 C 383.129 101.593,383.108 101.484,383.030 101.436 C 382.953 101.387,382.889 101.457,382.889 101.590 M384.381 102.083 C 384.382 102.542,384.415 102.709,384.453 102.456 C 384.491 102.203,384.490 101.828,384.451 101.623 C 384.411 101.418,384.380 101.625,384.381 102.083 M377.000 101.719 C 377.000 101.748,377.244 101.991,377.542 102.260 L 378.083 102.750 377.594 102.208 C 377.138 101.703,377.000 101.590,377.000 101.719 M356.212 103.333 C 356.212 103.746,356.245 103.915,356.284 103.708 C 356.324 103.502,356.324 103.165,356.284 102.958 C 356.245 102.752,356.212 102.921,356.212 103.333 M111.504 105.162 C 110.405 106.474,108.809 108.948,108.573 109.705 C 108.508 109.913,108.406 110.121,108.347 110.167 C 108.205 110.276,107.444 112.592,107.444 112.916 C 107.444 113.210,107.304 113.237,107.058 112.991 C 105.993 111.927,102.592 112.237,99.417 113.688 C 98.958 113.897,98.533 114.055,98.472 114.039 C 98.410 114.022,97.733 114.303,96.967 114.662 L 95.574 115.315 92.995 114.672 C 91.577 114.318,90.259 113.979,90.066 113.918 C 89.749 113.818,89.707 113.888,89.615 114.660 C 89.217 118.021,84.568 120.985,81.625 119.753 C 80.699 119.366,81.817 124.262,83.479 127.875 C 83.940 128.879,84.047 129.000,84.470 129.000 C 85.192 129.000,85.193 128.886,84.486 127.791 C 83.764 126.675,83.266 125.200,83.008 123.416 C 82.787 121.883,82.782 120.115,83.000 120.250 C 83.092 120.307,83.167 120.630,83.167 120.968 C 83.170 124.606,84.963 128.375,87.119 129.276 C 89.937 130.453,96.219 128.484,95.870 126.533 L 95.789 126.083 96.314 126.575 C 96.862 127.090,96.916 127.453,96.432 127.366 C 96.271 127.337,95.728 127.703,95.181 128.210 C 92.752 130.459,88.569 131.173,86.345 129.718 C 85.942 129.455,84.167 129.300,84.167 129.529 C 84.167 129.926,85.393 132.232,85.908 132.801 C 86.985 133.994,88.829 134.311,95.519 134.451 L 99.454 134.534 100.065 135.353 C 101.327 137.043,102.486 139.153,103.852 142.250 C 104.013 142.617,104.225 143.479,104.321 144.167 C 104.418 144.854,104.612 145.741,104.752 146.137 C 104.892 146.533,105.085 147.422,105.181 148.111 C 105.371 149.478,106.195 152.416,106.617 153.232 C 107.531 154.999,106.113 163.222,103.712 170.083 C 102.067 174.783,102.614 174.154,99.583 174.835 C 95.244 175.809,94.167 176.388,94.167 177.744 C 94.167 179.900,98.078 180.952,102.333 179.939 C 102.929 179.798,103.754 179.601,104.167 179.501 C 105.114 179.273,106.314 178.834,106.760 178.553 C 107.453 178.116,108.450 175.624,108.983 173.000 C 109.086 172.496,109.440 170.733,109.772 169.083 C 110.103 167.433,110.470 165.633,110.587 165.083 C 110.704 164.533,110.961 163.296,111.157 162.333 C 111.595 160.180,111.597 160.174,111.761 160.583 C 111.883 160.889,112.467 161.802,112.668 162.000 C 112.714 162.046,112.973 162.383,113.244 162.750 C 114.025 163.808,115.438 165.243,117.417 166.986 C 120.830 169.994,121.874 170.679,125.464 172.268 C 126.688 172.810,127.883 173.475,128.428 173.919 C 128.930 174.327,129.564 174.777,129.837 174.918 C 130.110 175.060,130.333 175.200,130.333 175.229 C 130.333 175.259,128.965 175.287,127.292 175.291 C 122.975 175.303,120.992 175.877,119.159 177.643 C 117.685 179.063,118.254 179.948,121.000 180.505 C 123.362 180.983,140.588 180.527,145.667 179.851 C 151.178 179.117,152.393 178.050,150.292 175.791 C 149.925 175.397,149.833 175.139,149.833 174.508 L 149.833 173.717 150.708 173.846 C 151.190 173.917,151.907 174.017,152.302 174.067 C 155.137 174.432,158.232 177.586,157.933 179.806 C 157.707 181.483,154.942 183.815,152.458 184.424 C 152.206 184.486,152.000 184.603,152.000 184.685 C 152.000 184.766,151.886 184.833,151.748 184.833 C 151.609 184.833,150.861 185.089,150.085 185.402 C 149.309 185.715,148.148 186.106,147.504 186.272 C 146.430 186.549,145.967 186.833,146.590 186.833 C 146.909 186.833,149.935 186.514,150.500 186.421 C 154.205 185.809,155.651 185.400,157.646 184.399 C 161.003 182.715,162.170 180.677,161.674 177.367 C 161.670 177.339,161.227 177.366,160.691 177.427 C 157.997 177.732,155.719 175.746,155.779 173.145 L 155.801 172.199 155.025 171.920 C 150.922 170.443,148.899 169.252,148.587 168.130 C 148.528 167.921,148.364 167.450,148.220 167.083 C 148.077 166.717,147.902 166.267,147.830 166.083 C 147.334 164.807,147.131 164.489,146.864 164.568 C 143.360 165.615,139.800 164.226,138.276 161.219 C 137.028 158.756,136.855 154.985,137.898 152.976 L 138.301 152.199 137.859 151.819 C 136.687 150.814,135.410 149.737,135.256 149.623 C 135.161 149.553,134.371 148.928,133.500 148.233 C 132.629 147.538,131.804 146.926,131.667 146.872 C 131.529 146.818,131.379 146.724,131.333 146.662 C 131.217 146.504,127.095 143.826,126.083 143.251 C 125.625 142.990,125.119 142.665,124.958 142.529 C 124.699 142.309,124.667 142.311,124.667 142.545 C 124.667 144.894,117.573 145.850,115.583 143.769 C 113.415 141.502,113.480 137.213,115.682 137.161 C 115.827 137.158,115.757 137.026,115.500 136.818 C 113.072 134.852,113.081 134.873,113.028 130.583 C 112.996 128.023,112.817 126.136,112.313 123.064 C 111.961 120.913,111.987 120.567,112.598 119.250 C 113.890 116.465,114.003 115.908,114.055 112.088 C 114.138 105.912,113.142 103.206,111.504 105.162 M384.539 104.833 C 384.539 105.154,384.573 105.285,384.615 105.125 C 384.657 104.965,384.657 104.702,384.615 104.542 C 384.573 104.381,384.539 104.513,384.539 104.833 M16.250 105.415 C 5.291 107.907,3.831 108.417,2.951 110.063 C 2.480 110.943,2.443 115.107,2.883 117.674 C 4.034 124.385,6.632 125.804,13.196 123.310 C 14.676 122.747,20.663 120.669,22.083 120.224 C 23.929 119.646,24.333 119.482,24.333 119.313 C 24.333 118.906,21.833 119.592,15.365 121.775 C 5.238 125.192,4.323 124.665,3.326 114.838 C 2.790 109.556,2.831 109.520,12.417 106.997 C 14.892 106.346,17.517 105.635,18.250 105.417 C 18.983 105.199,19.921 104.949,20.333 104.862 L 21.083 104.702 20.250 104.698 C 19.792 104.696,17.992 105.019,16.250 105.415 M111.596 109.458 C 111.386 114.117,110.478 119.494,110.100 118.316 C 110.059 118.188,109.901 117.689,109.749 117.207 C 109.483 116.363,108.809 114.962,108.472 114.552 C 107.916 113.874,109.396 109.608,110.903 107.547 C 111.683 106.480,111.725 106.598,111.596 109.458 M363.002 111.466 C 363.019 114.469,367.959 116.485,371.253 114.833 L 372.417 114.250 371.667 114.209 C 368.762 114.050,366.394 113.342,364.292 112.004 C 363.287 111.364,363.000 111.245,363.002 111.466 M380.240 113.875 L 379.750 114.417 380.292 113.927 C 380.797 113.471,380.910 113.333,380.781 113.333 C 380.752 113.333,380.509 113.577,380.240 113.875 M103.237 114.875 C 103.831 115.474,104.298 117.120,104.099 117.913 C 103.955 118.486,103.668 118.289,103.663 117.615 C 103.658 116.868,103.147 115.851,102.437 115.176 C 101.720 114.493,101.687 114.333,102.267 114.333 C 102.534 114.333,102.906 114.541,103.237 114.875 M358.869 115.380 C 358.609 115.767,358.236 116.509,358.042 117.029 L 357.688 117.974 358.214 119.571 C 358.503 120.448,358.820 121.167,358.919 121.167 C 359.018 121.167,360.063 123.269,361.241 125.839 C 362.419 128.409,363.437 130.490,363.504 130.464 C 363.570 130.438,365.011 129.404,366.707 128.167 L 369.789 125.917 370.812 122.500 C 371.375 120.621,371.835 119.046,371.834 119.000 C 371.834 118.954,370.577 118.916,369.042 118.914 C 365.093 118.911,362.672 118.006,360.320 115.653 L 359.343 114.676 358.869 115.380 M102.405 117.095 C 103.043 117.733,102.373 119.167,101.436 119.167 C 100.456 119.167,100.199 118.109,100.987 117.321 C 101.530 116.778,102.011 116.701,102.405 117.095 M24.910 118.542 C 24.654 118.931,24.550 119.162,24.680 119.054 C 24.930 118.848,25.568 117.833,25.448 117.833 C 25.409 117.833,25.167 118.152,24.910 118.542 M319.000 119.913 C 315.654 120.455,313.525 121.666,312.546 123.583 C 312.312 124.042,311.849 124.726,311.518 125.103 C 309.183 127.767,308.208 131.405,308.418 136.667 C 308.677 143.184,308.433 146.676,307.605 148.296 C 307.425 148.649,307.403 149.100,307.506 150.330 C 307.654 152.084,307.636 152.166,307.115 152.167 C 306.914 152.167,306.305 152.377,305.761 152.634 L 304.771 153.100 305.296 153.473 C 305.948 153.938,307.548 154.499,308.234 154.504 C 308.547 154.506,309.671 154.991,311.083 155.732 L 313.417 156.957 314.691 159.135 C 316.098 161.541,316.092 161.501,315.014 161.498 C 313.957 161.496,312.796 160.910,311.481 159.716 C 309.455 157.874,308.121 158.281,308.736 160.553 L 309.015 161.585 311.966 162.626 C 314.677 163.583,315.029 163.668,316.297 163.667 C 318.090 163.666,318.708 163.922,319.157 164.852 C 319.679 165.933,319.620 166.127,318.626 166.587 L 317.752 166.992 318.296 167.101 C 318.844 167.211,319.667 167.999,319.667 168.416 C 319.667 168.539,319.709 168.751,319.762 168.887 C 319.865 169.156,319.799 169.175,317.685 169.510 L 316.453 169.705 316.976 170.114 C 317.597 170.600,317.647 171.101,317.139 171.747 L 316.778 172.206 315.126 172.089 C 313.691 171.987,313.433 172.009,313.157 172.259 C 312.573 172.788,310.317 172.941,308.277 172.592 L 306.517 172.290 304.873 169.853 L 303.230 167.417 302.919 165.512 C 302.585 163.466,300.696 159.650,299.219 158.038 C 298.906 157.696,298.260 156.629,297.783 155.667 C 297.307 154.704,296.903 153.891,296.887 153.859 C 296.870 153.827,296.514 154.037,296.095 154.325 C 295.147 154.978,295.148 155.145,296.062 151.042 C 296.455 149.277,296.723 147.833,296.657 147.833 C 296.591 147.833,295.947 147.942,295.227 148.075 C 293.696 148.357,292.354 148.539,283.483 149.662 C 275.755 150.640,275.652 150.667,273.493 152.274 C 271.424 153.813,269.845 156.049,268.666 159.111 C 268.412 159.771,267.861 160.861,267.442 161.535 C 260.852 172.108,264.265 179.095,276.710 180.505 C 278.375 180.693,280.235 181.435,281.415 182.380 C 282.928 183.592,292.216 183.327,293.382 182.038 C 293.622 181.773,293.816 181.755,295.118 181.876 C 295.924 181.951,299.177 182.031,302.348 182.055 L 308.113 182.097 308.931 182.617 C 310.102 183.361,311.332 183.682,313.333 183.767 C 314.296 183.808,317.746 183.950,321.000 184.082 C 324.254 184.215,328.979 184.409,331.500 184.513 C 337.342 184.754,339.073 184.434,339.665 183.003 C 340.036 182.108,338.578 180.399,336.417 179.196 C 335.980 178.953,335.262 178.943,346.833 179.334 C 361.022 179.813,359.670 179.968,359.664 177.867 C 359.660 176.447,359.768 176.484,356.833 176.897 C 353.955 177.303,354.059 177.314,350.750 176.228 C 347.101 175.030,341.311 170.905,339.882 168.486 C 339.731 168.230,339.435 167.978,339.223 167.925 C 337.393 167.465,338.796 162.126,341.458 159.420 C 341.985 158.885,342.167 158.567,342.167 158.182 C 342.167 157.451,341.719 154.562,341.330 152.776 C 340.939 150.988,340.950 151.118,341.208 151.269 C 341.323 151.336,341.294 151.246,341.145 151.070 C 339.980 149.696,339.783 148.072,339.816 140.139 C 339.844 133.560,339.679 130.931,339.153 129.549 C 338.879 128.828,339.112 128.931,339.587 129.741 C 340.997 132.148,341.680 136.244,341.329 140.203 C 341.065 143.184,341.512 146.663,342.661 150.573 C 342.929 151.483,343.116 152.281,343.076 152.345 C 342.949 152.550,344.444 152.833,345.657 152.833 C 346.304 152.833,346.833 152.806,346.833 152.773 C 346.833 152.741,346.577 152.159,346.264 151.482 C 344.787 148.285,344.115 143.201,344.504 138.174 C 345.106 130.409,343.060 125.249,338.363 122.689 C 337.920 122.448,337.151 122.006,336.654 121.708 C 335.461 120.993,334.244 120.539,332.417 120.127 C 330.450 119.683,321.317 119.538,319.000 119.913 M89.167 120.990 C 89.167 121.392,88.864 121.598,88.626 121.359 C 88.499 121.232,88.509 121.106,88.661 120.924 C 88.952 120.573,89.167 120.601,89.167 120.990 M357.012 120.860 C 357.005 120.921,356.895 121.521,356.766 122.194 C 356.638 122.866,356.407 124.654,356.253 126.167 L 355.974 128.917 356.463 130.831 L 356.952 132.746 359.053 133.094 C 361.320 133.469,361.560 133.409,361.070 132.583 C 360.242 131.190,357.133 122.746,357.213 122.110 C 357.261 121.729,357.238 121.267,357.162 121.083 C 357.086 120.900,357.018 120.800,357.012 120.860 M89.358 122.750 C 89.358 122.837,89.278 122.935,89.179 122.968 C 89.081 123.001,89.000 122.903,89.000 122.750 C 89.000 122.597,89.081 122.499,89.179 122.532 C 89.278 122.565,89.358 122.663,89.358 122.750 M87.833 122.823 C 87.833 123.020,87.508 123.230,87.389 123.111 C 87.270 122.992,87.480 122.667,87.677 122.667 C 87.763 122.667,87.833 122.737,87.833 122.823 M319.274 133.583 C 319.379 134.775,319.473 136.069,319.482 136.458 L 319.500 137.167 318.190 137.167 L 316.880 137.167 316.690 135.494 C 316.352 132.524,316.592 131.708,317.881 131.447 C 319.064 131.207,319.065 131.209,319.274 133.583 M366.409 131.675 C 366.238 131.864,365.646 132.320,365.091 132.690 C 364.009 133.412,363.676 133.793,364.032 133.904 C 365.142 134.250,365.366 134.065,366.894 131.542 C 367.097 131.206,366.746 131.303,366.409 131.675 M335.531 131.651 C 336.448 132.009,336.590 132.329,336.825 134.570 C 337.077 136.971,337.123 136.866,335.704 137.144 C 334.412 137.396,334.407 137.393,334.271 136.214 C 334.211 135.684,334.061 134.462,333.939 133.500 C 333.779 132.237,333.769 131.716,333.900 131.628 C 334.155 131.457,335.068 131.470,335.531 131.651 M56.119 134.860 C 55.123 137.519,55.149 138.080,56.278 138.237 C 60.726 138.857,61.344 139.070,61.794 140.136 C 63.334 143.788,67.021 145.430,71.500 144.458 L 72.583 144.223 71.750 144.105 C 71.292 144.040,70.372 143.727,69.706 143.410 C 68.766 142.963,68.283 142.833,67.550 142.833 C 65.762 142.833,64.747 142.052,63.716 139.879 C 62.954 138.273,62.489 137.846,60.805 137.207 C 58.893 136.481,58.012 135.726,58.270 135.036 C 58.450 134.555,58.438 134.533,57.937 134.446 C 57.651 134.396,57.186 134.306,56.903 134.246 C 56.418 134.142,56.375 134.176,56.119 134.860 M314.089 142.667 C 314.816 145.578,316.180 149.199,317.116 150.707 L 317.503 151.332 316.377 150.643 C 315.757 150.264,314.989 149.777,314.670 149.560 C 313.946 149.070,313.833 149.069,313.833 149.553 C 313.833 151.735,311.352 153.297,309.056 152.562 L 308.083 152.250 309.370 152.159 C 312.159 151.961,313.295 149.048,313.351 141.952 C 313.365 140.151,313.397 139.871,313.530 140.417 C 313.620 140.783,313.871 141.796,314.089 142.667 M93.379 141.500 C 93.379 141.912,93.411 142.081,93.451 141.875 C 93.491 141.669,93.491 141.331,93.451 141.125 C 93.411 140.919,93.379 141.087,93.379 141.500 M21.750 143.333 C 22.201 143.792,22.608 144.167,22.654 144.167 C 22.700 144.167,22.368 143.792,21.917 143.333 C 21.465 142.875,21.058 142.500,21.013 142.500 C 20.967 142.500,21.299 142.875,21.750 143.333 M332.542 143.222 C 333.626 143.675,333.564 144.033,331.964 146.543 C 331.191 147.757,330.500 148.848,330.429 148.969 C 330.260 149.257,330.744 149.781,331.570 150.202 C 332.629 150.743,334.089 150.438,335.291 149.427 C 335.770 149.024,335.799 149.019,336.063 149.311 C 336.463 149.753,335.346 150.992,333.984 151.618 C 333.251 151.954,333.019 152.139,333.094 152.328 C 333.150 152.468,333.258 153.971,333.334 155.667 C 333.409 157.362,333.565 159.389,333.680 160.170 C 334.013 162.431,333.756 162.833,331.981 162.833 C 329.647 162.833,327.838 160.068,326.315 154.175 C 326.044 153.125,325.806 152.259,325.786 152.251 C 325.766 152.243,325.375 152.144,324.917 152.033 C 322.484 151.440,318.369 148.586,319.004 147.932 C 319.235 147.695,319.368 147.743,320.414 148.445 C 323.718 150.662,326.607 151.203,328.159 149.897 C 328.849 149.317,328.867 149.357,327.115 147.533 C 324.612 144.927,324.539 144.788,325.292 144.087 C 326.611 142.860,330.551 142.390,332.542 143.222 M17.881 143.426 C 16.433 144.567,17.361 146.835,19.810 148.141 C 22.688 149.675,32.424 151.584,36.442 151.403 C 37.802 151.341,37.649 151.152,38.010 153.333 C 38.335 155.292,38.556 155.186,38.447 153.126 C 38.354 151.379,38.361 151.333,38.718 151.265 C 40.488 150.927,41.238 150.736,42.208 150.377 C 43.222 150.002,43.871 149.473,42.958 149.764 C 41.351 150.278,40.235 150.460,40.408 150.181 C 40.711 149.691,39.311 149.294,36.532 149.082 C 33.700 148.866,32.799 148.698,28.083 147.502 C 22.452 146.074,19.920 144.917,19.335 143.503 C 19.074 142.874,18.612 142.850,17.881 143.426 M35.794 147.785 C 36.001 147.824,36.301 147.823,36.460 147.781 C 36.620 147.739,36.450 147.707,36.083 147.709 C 35.717 147.711,35.586 147.745,35.794 147.785 M126.183 147.860 C 128.786 148.748,128.827 151.497,126.256 152.754 C 123.788 153.962,122.711 151.039,124.613 148.292 C 125.077 147.621,125.301 147.559,126.183 147.860 M39.792 150.448 C 39.631 150.490,39.369 150.490,39.208 150.448 C 39.048 150.406,39.179 150.372,39.500 150.372 C 39.821 150.372,39.952 150.406,39.792 150.448 M63.917 153.014 C 62.908 153.463,61.465 154.028,60.708 154.268 C 59.952 154.509,59.334 154.753,59.335 154.811 C 59.364 157.286,62.579 165.038,65.668 170.086 C 66.034 170.683,66.333 171.206,66.333 171.247 C 66.333 171.288,66.746 172.002,67.250 172.833 C 67.754 173.665,68.167 174.379,68.167 174.420 C 68.167 174.461,68.474 174.996,68.849 175.609 L 69.532 176.725 69.266 177.548 C 68.648 179.463,68.728 179.546,71.408 179.764 L 72.892 179.884 72.550 179.400 C 72.172 178.866,71.587 177.644,70.347 174.801 C 69.895 173.765,68.913 171.756,68.165 170.337 C 67.417 168.918,66.578 167.268,66.302 166.670 C 66.025 166.073,65.400 164.721,64.913 163.667 C 62.939 159.400,62.961 157.780,65.017 155.713 C 65.488 155.240,66.130 154.730,66.444 154.581 C 67.013 154.312,67.080 153.960,66.666 153.417 C 66.596 153.325,66.486 153.006,66.423 152.708 C 66.272 152.005,66.147 152.021,63.917 153.014 M55.083 155.438 C 53.202 155.802,49.937 155.912,48.500 155.658 C 47.385 155.461,46.848 155.437,46.702 155.577 C 46.660 155.618,45.761 158.732,45.328 160.333 C 45.242 160.654,44.900 161.817,44.569 162.917 C 42.787 168.841,42.009 171.813,41.736 173.740 C 41.594 174.742,41.411 175.688,41.330 175.840 C 41.248 175.993,41.132 176.635,41.072 177.267 C 41.011 177.899,40.852 178.642,40.718 178.917 C 40.584 179.192,40.337 179.851,40.169 180.381 L 39.864 181.346 40.224 181.581 C 40.858 181.996,41.755 182.311,42.628 182.427 L 43.479 182.540 43.240 181.744 C 42.444 179.100,43.356 174.643,45.914 168.674 C 49.101 161.238,51.526 158.221,54.695 157.749 C 55.373 157.648,55.498 157.565,55.663 157.108 C 55.768 156.819,55.999 156.306,56.177 155.967 C 56.529 155.295,56.565 155.155,56.375 155.189 C 56.306 155.202,55.725 155.313,55.083 155.438 M368.792 175.784 C 368.998 175.824,369.335 175.824,369.542 175.784 C 369.748 175.745,369.579 175.712,369.167 175.712 C 368.754 175.712,368.585 175.745,368.792 175.784 M363.958 175.951 C 364.165 175.991,364.502 175.991,364.708 175.951 C 364.915 175.911,364.746 175.879,364.333 175.879 C 363.921 175.879,363.752 175.911,363.958 175.951 M74.460 179.785 C 74.668 179.824,74.968 179.823,75.127 179.781 C 75.286 179.739,75.117 179.707,74.750 179.709 C 74.383 179.711,74.253 179.745,74.460 179.785 M43.960 182.618 C 44.168 182.658,44.468 182.656,44.627 182.615 C 44.786 182.573,44.617 182.540,44.250 182.542 C 43.883 182.544,43.753 182.578,43.960 182.618 " stroke="none" fill="#cc9067" fill-rule="evenodd"></path><path id="path4" d="M56.461 85.621 C 56.761 85.658,57.211 85.657,57.461 85.619 C 57.712 85.581,57.467 85.551,56.917 85.552 C 56.367 85.553,56.162 85.584,56.461 85.621 M76.961 95.787 C 77.261 95.825,77.711 95.824,77.961 95.786 C 78.212 95.748,77.967 95.717,77.417 95.718 C 76.867 95.719,76.662 95.750,76.961 95.787 M74.708 95.948 C 74.869 95.990,75.131 95.990,75.292 95.948 C 75.452 95.906,75.321 95.872,75.000 95.872 C 74.679 95.872,74.548 95.906,74.708 95.948 M73.115 96.145 L 72.647 96.250 73.240 96.433 C 73.717 96.581,73.798 96.575,73.656 96.404 C 73.521 96.241,73.590 96.174,73.948 96.120 C 74.364 96.058,74.370 96.049,74.000 96.045 C 73.771 96.042,73.373 96.087,73.115 96.145 M74.667 96.482 C 74.439 96.546,75.087 96.595,76.108 96.591 C 77.129 96.587,77.878 96.528,77.774 96.461 C 77.538 96.309,75.233 96.325,74.667 96.482 M80.601 97.098 C 80.545 97.244,80.541 97.432,80.593 97.515 C 80.644 97.598,80.610 97.667,80.516 97.667 C 80.422 97.667,80.263 97.835,80.163 98.042 C 79.989 98.402,79.992 98.404,80.241 98.093 C 80.483 97.791,80.500 97.832,80.500 98.718 C 80.500 99.240,80.575 99.667,80.667 99.667 C 80.765 99.667,80.833 99.083,80.833 98.250 C 80.833 96.827,80.789 96.608,80.601 97.098 M52.318 97.305 C 52.408 97.473,52.613 97.717,52.773 97.847 C 52.953 97.993,52.913 97.877,52.667 97.542 C 52.229 96.944,52.065 96.833,52.318 97.305 M48.696 97.479 C 48.523 97.588,48.568 97.724,48.899 98.101 C 49.132 98.366,49.325 98.498,49.328 98.393 C 49.331 98.288,49.212 98.156,49.064 98.099 C 48.894 98.034,48.827 97.875,48.882 97.665 C 48.930 97.482,48.957 97.334,48.943 97.336 C 48.928 97.337,48.817 97.401,48.696 97.479 M57.000 97.744 C 57.491 98.283,58.153 98.580,58.373 98.360 C 58.565 98.169,57.744 97.566,57.073 97.404 L 56.583 97.286 57.000 97.744 M50.750 98.833 C 50.628 99.030,50.791 99.030,51.250 98.833 C 51.571 98.695,51.570 98.690,51.218 98.678 C 51.017 98.672,50.807 98.742,50.750 98.833 M49.500 99.198 C 49.500 99.437,49.764 99.463,50.052 99.252 C 50.325 99.052,50.315 99.036,49.925 99.059 C 49.691 99.072,49.500 99.135,49.500 99.198 M53.560 99.272 C 54.025 99.524,54.607 99.356,54.181 99.092 C 54.082 99.031,54.000 99.062,54.000 99.163 C 54.000 99.291,53.905 99.294,53.678 99.173 C 53.500 99.078,53.294 99.003,53.219 99.007 C 53.145 99.010,53.298 99.130,53.560 99.272 M18.833 103.995 C 18.146 104.158,16.983 104.424,16.250 104.586 C 15.517 104.748,14.354 105.026,13.667 105.204 C 12.979 105.382,12.004 105.624,11.500 105.740 C 10.996 105.857,9.871 106.146,9.000 106.382 C 8.129 106.618,6.554 107.046,5.500 107.332 C 4.446 107.618,3.320 107.920,2.998 108.002 C -0.242 108.826,-0.918 112.481,0.917 119.250 C 1.066 119.800,1.260 120.536,1.348 120.886 C 2.240 124.455,3.861 125.476,7.417 124.709 L 8.083 124.566 7.246 124.449 C 4.332 124.042,2.630 120.004,2.597 113.417 C 2.580 110.100,3.060 108.997,4.824 108.298 C 6.514 107.629,19.313 104.657,20.387 104.685 L 21.083 104.702 20.333 104.862 C 19.921 104.949,18.983 105.199,18.250 105.417 C 17.517 105.635,14.892 106.346,12.417 106.997 C 5.055 108.935,4.217 109.254,3.669 110.329 C 2.670 112.286,3.524 119.636,5.045 122.175 C 6.430 124.488,7.436 124.443,15.608 121.700 C 21.291 119.793,24.061 119.005,24.287 119.232 C 24.344 119.288,24.833 118.678,25.375 117.875 L 26.359 116.417 26.256 114.272 C 25.850 105.857,23.673 102.843,18.833 103.995 M106.500 104.618 C 103.824 105.086,100.402 108.877,98.606 113.361 C 98.288 114.157,98.363 114.200,99.300 113.763 C 99.731 113.562,100.271 113.310,100.500 113.203 L 100.917 113.009 100.445 113.109 L 99.974 113.209 100.472 112.230 C 101.142 110.911,102.418 109.149,103.655 107.833 L 104.674 106.750 103.885 108.000 C 102.977 109.438,102.005 111.573,102.002 112.134 C 102.001 112.411,101.859 112.567,101.491 112.695 C 100.537 113.027,101.094 112.988,102.174 112.646 C 103.246 112.307,105.124 112.280,106.125 112.590 C 106.408 112.677,106.500 112.639,106.500 112.434 C 106.500 112.284,106.569 112.032,106.653 111.873 C 107.164 110.903,108.167 106.509,108.167 105.237 L 108.167 104.500 107.542 104.523 C 107.198 104.535,106.729 104.578,106.500 104.618 M111.463 107.875 C 111.547 109.756,111.613 109.942,111.640 108.375 C 111.655 107.527,111.610 106.833,111.542 106.833 C 111.473 106.833,111.438 107.302,111.463 107.875 M110.783 107.708 C 110.331 108.320,110.026 108.847,110.276 108.583 C 110.586 108.258,111.349 107.167,111.267 107.167 C 111.221 107.167,111.003 107.410,110.783 107.708 M109.186 110.683 C 109.084 110.976,109.005 111.299,109.012 111.400 C 109.018 111.501,109.131 111.290,109.262 110.931 C 109.394 110.573,109.472 110.250,109.437 110.214 C 109.401 110.179,109.288 110.390,109.186 110.683 M111.388 111.417 C 111.389 112.058,111.419 112.300,111.455 111.955 C 111.491 111.609,111.490 111.084,111.454 110.788 C 111.417 110.492,111.387 110.775,111.388 111.417 M114.039 111.167 C 114.039 111.487,114.073 111.619,114.115 111.458 C 114.157 111.298,114.157 111.035,114.115 110.875 C 114.073 110.715,114.039 110.846,114.039 111.167 M108.680 112.276 C 108.582 112.628,108.508 113.029,108.516 113.167 C 108.524 113.304,108.632 113.044,108.757 112.589 C 108.882 112.134,108.955 111.733,108.921 111.698 C 108.886 111.664,108.778 111.924,108.680 112.276 M114.045 113.333 C 114.045 113.746,114.078 113.915,114.118 113.708 C 114.157 113.502,114.157 113.165,114.118 112.958 C 114.078 112.752,114.045 112.921,114.045 113.333 M111.205 113.500 C 111.205 113.821,111.240 113.952,111.282 113.792 C 111.323 113.631,111.323 113.369,111.282 113.208 C 111.240 113.048,111.205 113.179,111.205 113.500 M108.333 114.073 C 108.333 114.297,108.395 114.518,108.470 114.565 C 108.545 114.611,108.574 114.428,108.534 114.158 C 108.447 113.562,108.333 113.515,108.333 114.073 M110.931 115.181 C 110.868 115.653,110.850 116.072,110.891 116.113 C 110.932 116.154,111.019 115.803,111.083 115.333 C 111.148 114.863,111.166 114.443,111.123 114.400 C 111.080 114.357,110.993 114.708,110.931 115.181 M104.042 117.417 C 104.044 117.783,104.078 117.914,104.118 117.706 C 104.158 117.499,104.156 117.199,104.115 117.040 C 104.073 116.880,104.040 117.050,104.042 117.417 M110.331 117.931 C 110.329 118.198,110.302 118.209,110.167 118.000 C 110.027 117.785,110.005 117.789,110.003 118.032 C 109.999 118.462,110.295 118.550,110.420 118.157 C 110.481 117.965,110.486 117.764,110.432 117.710 C 110.378 117.655,110.332 117.755,110.331 117.931 M112.709 125.750 C 112.711 126.117,112.745 126.247,112.785 126.040 C 112.824 125.832,112.823 125.532,112.781 125.373 C 112.739 125.214,112.707 125.383,112.709 125.750 M339.083 129.250 C 339.667 131.011,339.741 132.112,339.764 139.333 C 339.795 149.224,339.997 150.319,342.049 151.716 C 343.261 152.541,343.247 152.566,342.663 150.577 C 341.518 146.682,341.058 143.122,341.328 140.250 C 341.722 136.068,340.774 131.037,339.256 129.250 L 338.973 128.917 339.083 129.250 M113.052 131.750 C 113.053 132.300,113.084 132.505,113.121 132.205 C 113.158 131.906,113.157 131.456,113.119 131.205 C 113.081 130.955,113.051 131.200,113.052 131.750 M114.512 137.939 C 114.322 138.181,114.169 138.462,114.172 138.564 C 114.175 138.666,114.260 138.600,114.362 138.417 C 114.463 138.233,114.660 137.952,114.799 137.792 C 114.938 137.631,115.008 137.500,114.955 137.500 C 114.901 137.500,114.702 137.698,114.512 137.939 M313.351 141.952 C 313.295 149.048,312.159 151.961,309.370 152.159 L 308.083 152.250 309.056 152.562 C 311.352 153.297,313.833 151.735,313.833 149.553 C 313.833 149.069,313.946 149.070,314.670 149.560 C 314.989 149.777,315.757 150.264,316.377 150.643 L 317.503 151.332 317.116 150.707 C 316.903 150.364,316.422 149.371,316.047 148.500 C 315.013 146.095,314.565 144.658,313.530 140.417 C 313.397 139.871,313.365 140.151,313.351 141.952 M93.455 141.464 C 93.399 142.319,93.217 143.302,93.017 143.829 C 92.829 144.324,92.693 144.749,92.716 144.771 C 92.863 144.919,95.089 145.944,96.609 146.565 C 99.171 147.611,99.959 147.791,102.485 147.904 C 103.876 147.966,104.815 148.082,104.971 148.210 C 105.285 148.469,105.162 147.299,104.755 146.144 C 104.614 145.744,104.422 144.892,104.329 144.250 C 104.236 143.608,104.084 142.850,103.992 142.565 L 103.823 142.047 102.968 142.203 C 101.116 142.539,97.540 141.793,94.715 140.481 C 94.146 140.216,93.651 140.000,93.615 140.000 C 93.579 140.000,93.507 140.659,93.455 141.464 M114.258 141.708 C 114.320 141.915,114.439 142.157,114.523 142.246 C 114.607 142.336,114.591 142.167,114.488 141.871 C 114.277 141.266,114.082 141.128,114.258 141.708 M124.500 142.571 C 124.500 142.701,124.304 143.057,124.064 143.362 L 123.629 143.917 124.148 143.372 C 124.599 142.899,124.836 142.333,124.583 142.333 C 124.537 142.333,124.500 142.440,124.500 142.571 M19.708 142.853 C 19.084 143.033,19.086 143.027,19.416 143.666 C 20.107 145.002,22.633 146.120,28.083 147.502 C 32.799 148.698,33.700 148.866,36.532 149.082 C 39.311 149.294,40.711 149.691,40.408 150.181 C 40.235 150.460,41.351 150.278,42.958 149.764 C 43.871 149.473,43.222 150.002,42.208 150.377 C 41.238 150.736,40.488 150.927,38.718 151.265 C 38.361 151.333,38.354 151.379,38.447 153.126 C 38.556 155.186,38.335 155.292,38.010 153.333 C 37.649 151.152,37.802 151.341,36.442 151.403 C 32.424 151.584,22.688 149.675,19.810 148.141 C 18.083 147.220,16.928 145.598,17.215 144.498 C 17.263 144.316,17.238 144.167,17.159 144.167 C 16.642 144.167,16.762 149.642,17.306 150.833 C 17.868 152.068,18.871 152.858,20.917 153.679 C 23.097 154.554,26.591 155.165,29.449 155.170 C 30.439 155.172,32.150 155.282,33.250 155.415 C 38.459 156.044,40.718 155.721,45.417 153.675 C 45.600 153.596,45.889 153.485,46.059 153.430 C 46.426 153.312,46.357 152.880,45.766 151.583 C 44.625 149.083,42.814 148.458,34.167 147.581 C 27.376 146.893,23.964 145.700,21.594 143.186 C 21.078 142.638,20.689 142.570,19.708 142.853 M115.501 143.724 C 115.729 143.984,116.067 144.275,116.250 144.369 C 116.601 144.550,116.591 144.539,115.667 143.749 L 115.085 143.250 115.501 143.724 M121.750 144.500 C 121.540 144.590,121.509 144.643,121.667 144.643 C 121.804 144.643,122.067 144.579,122.250 144.500 C 122.460 144.410,122.491 144.357,122.333 144.357 C 122.196 144.357,121.933 144.421,121.750 144.500 M118.463 144.956 C 118.855 144.991,119.455 144.990,119.796 144.954 C 120.137 144.919,119.817 144.890,119.083 144.890 C 118.350 144.891,118.071 144.920,118.463 144.956 M124.516 148.445 C 124.232 148.873,124.003 149.305,124.007 149.404 C 124.011 149.502,124.142 149.354,124.299 149.073 C 124.806 148.164,125.084 147.868,125.504 147.789 L 125.917 147.712 125.474 147.689 C 125.120 147.671,124.928 147.823,124.516 148.445 M127.756 149.138 C 127.818 149.260,127.930 149.560,128.004 149.805 C 128.111 150.162,128.141 150.182,128.152 149.907 C 128.160 149.718,128.049 149.418,127.904 149.240 C 127.760 149.062,127.693 149.016,127.756 149.138 M123.717 151.000 C 123.717 151.504,123.748 151.710,123.786 151.458 C 123.824 151.206,123.824 150.794,123.786 150.542 C 123.748 150.290,123.717 150.496,123.717 151.000 M39.208 150.448 C 39.369 150.490,39.631 150.490,39.792 150.448 C 39.952 150.406,39.821 150.372,39.500 150.372 C 39.179 150.372,39.048 150.406,39.208 150.448 M127.887 150.958 C 127.714 151.512,127.719 151.546,127.929 151.260 C 128.128 150.989,128.266 150.333,128.124 150.333 C 128.101 150.333,127.994 150.615,127.887 150.958 M127.000 152.187 C 126.419 152.696,126.419 152.697,126.953 152.341 C 127.248 152.145,127.534 151.913,127.588 151.826 C 127.749 151.565,127.616 151.647,127.000 152.187 M137.721 153.292 C 137.577 153.635,137.433 154.217,137.401 154.583 L 137.343 155.250 137.491 154.568 C 137.573 154.193,137.755 153.611,137.895 153.276 C 138.035 152.941,138.112 152.667,138.066 152.667 C 138.020 152.667,137.865 152.948,137.721 153.292 M137.221 156.417 C 137.222 157.058,137.252 157.300,137.288 156.955 C 137.324 156.609,137.324 156.084,137.287 155.788 C 137.250 155.492,137.221 155.775,137.221 156.417 M137.674 159.622 C 137.665 159.878,138.187 161.202,138.267 161.122 C 138.299 161.090,138.181 160.693,138.004 160.240 C 137.827 159.787,137.679 159.509,137.674 159.622 M139.334 162.730 C 139.925 163.386,141.253 164.335,141.574 164.331 C 141.671 164.330,141.412 164.138,141.000 163.904 C 140.587 163.670,139.913 163.164,139.501 162.781 L 138.752 162.083 139.334 162.730 M142.417 164.659 C 142.737 164.804,143.629 164.898,143.486 164.772 C 143.448 164.738,143.117 164.665,142.750 164.609 C 142.285 164.539,142.184 164.554,142.417 164.659 M144.127 164.951 C 144.334 164.991,144.634 164.990,144.794 164.948 C 144.953 164.906,144.783 164.874,144.417 164.875 C 144.050 164.877,143.920 164.911,144.127 164.951 M116.360 167.193 C 116.451 168.617,117.310 170.332,118.829 172.115 L 119.976 173.461 118.363 173.844 C 117.476 174.054,116.679 174.288,116.592 174.363 C 116.505 174.438,116.296 174.500,116.128 174.500 C 115.091 174.500,113.500 175.784,113.500 176.621 C 113.500 177.923,114.514 178.500,116.805 178.500 L 118.270 178.500 119.128 177.673 C 120.994 175.874,122.952 175.303,127.292 175.291 C 128.965 175.287,130.333 175.259,130.333 175.229 C 130.333 175.200,130.110 175.060,129.837 174.918 C 129.564 174.777,128.930 174.327,128.428 173.919 C 127.883 173.475,126.688 172.810,125.464 172.268 C 122.033 170.749,120.730 169.917,118.000 167.501 C 116.213 165.919,116.280 165.932,116.360 167.193 M159.711 177.453 C 159.964 177.491,160.339 177.490,160.544 177.451 C 160.749 177.411,160.542 177.380,160.083 177.381 C 159.625 177.382,159.457 177.415,159.711 177.453 M77.341 179.272 C 76.268 179.822,71.426 179.997,69.432 179.558 L 68.948 179.451 69.044 181.407 C 69.097 182.483,69.180 183.402,69.228 183.451 C 69.276 183.499,71.664 183.648,74.533 183.782 C 82.962 184.175,87.420 183.822,87.783 182.734 C 87.905 182.368,85.345 181.383,81.917 180.477 C 80.211 180.027,78.865 179.580,78.000 179.178 C 77.862 179.114,77.566 179.156,77.341 179.272 M39.758 181.889 C 39.711 182.179,39.600 182.838,39.512 183.353 C 39.300 184.597,39.458 186.115,39.814 186.252 C 40.334 186.453,54.528 186.554,55.717 186.366 C 56.898 186.178,58.083 185.703,58.083 185.417 C 58.083 185.199,56.106 184.225,55.250 184.021 C 51.576 183.146,49.397 182.495,48.717 182.067 C 48.516 181.941,48.309 181.904,48.258 181.987 C 48.166 182.136,46.735 182.397,45.000 182.580 C 43.780 182.709,41.517 182.298,40.586 181.778 L 39.843 181.362 39.758 181.889 M156.658 181.958 L 156.083 182.583 156.708 182.009 C 157.290 181.474,157.410 181.333,157.283 181.333 C 157.255 181.333,156.974 181.615,156.658 181.958 M145.833 186.667 C 145.833 186.758,145.946 186.833,146.083 186.833 C 146.221 186.833,146.333 186.758,146.333 186.667 C 146.333 186.575,146.221 186.500,146.083 186.500 C 145.946 186.500,145.833 186.575,145.833 186.667 " stroke="none" fill="#cb7735" fill-rule="evenodd"></path></g></svg>